<svg xmlns="http://www.w3.org/2000/svg" xmlns:xlink="http://www.w3.org/1999/xlink" width="231" height="231" viewBox="0 0 231 231"><defs><filter id="a" x="0" y="0" width="231" height="231" filterUnits="userSpaceOnUse"><feOffset input="SourceAlpha"/><feGaussianBlur stdDeviation="6" result="b"/><feFlood flood-color="#4ced6b"/><feComposite operator="in" in2="b"/><feComposite in="SourceGraphic"/></filter></defs><g transform="translate(-291 -174)"><g transform="translate(-67.15 -604.65)"><g transform="translate(396.508 817.201)"><g transform="translate(0 0)"><path d="M101.028,54.637a19.121,19.121,0,0,0-1.791-3.247,21.322,21.322,0,0,0,3.525-12.2A15.537,15.537,0,0,0,98.575,28.7,14.856,14.856,0,0,0,87.589,23.92a26.228,26.228,0,0,0-11.894,3.31c-.118.061-.233.127-.35.189a34.21,34.21,0,0,0,2.144-4.838,22.646,22.646,0,0,0,1.355-7.407,14.942,14.942,0,0,0-1.317-6.185A15.513,15.513,0,0,0,63.574,0a22.559,22.559,0,0,0-8.936,1.734A19.179,19.179,0,0,0,51.39,3.525,21.322,21.322,0,0,0,39.189,0,15.537,15.537,0,0,0,28.7,4.188,14.856,14.856,0,0,0,23.92,15.175a26.227,26.227,0,0,0,3.31,11.893c.061.118.127.234.19.352-.118-.063-.234-.129-.351-.19a26.234,26.234,0,0,0-11.894-3.31A14.856,14.856,0,0,0,4.188,28.7,15.539,15.539,0,0,0,0,39.189a21.322,21.322,0,0,0,3.524,12.2,19.228,19.228,0,0,0-1.791,3.247A22.557,22.557,0,0,0,0,63.573,15.512,15.512,0,0,0,8.99,77.526a14.934,14.934,0,0,0,6.184,1.316,22.632,22.632,0,0,0,7.408-1.355,34.211,34.211,0,0,0,4.838-2.144c-.063.118-.129.233-.19.351a26.227,26.227,0,0,0-3.31,11.893A14.856,14.856,0,0,0,28.7,98.575a15.542,15.542,0,0,0,10.489,4.188,21.321,21.321,0,0,0,12.2-3.525,19.124,19.124,0,0,0,3.248,1.791,22.557,22.557,0,0,0,8.936,1.734,15.513,15.513,0,0,0,13.952-8.989,14.939,14.939,0,0,0,1.317-6.185,22.65,22.65,0,0,0-1.355-7.407,34.233,34.233,0,0,0-2.144-4.837,34.253,34.253,0,0,0,4.837,2.143,22.63,22.63,0,0,0,7.407,1.355,14.938,14.938,0,0,0,6.185-1.316,15.511,15.511,0,0,0,8.99-13.953A22.571,22.571,0,0,0,101.028,54.637Zm-48.856-.526-.082-.055h-.709a8.475,8.475,0,0,0-2.866.575c-.211.077-.425.162-.639.252a12.683,12.683,0,0,0,.556-1.586,8.41,8.41,0,0,0,.22-1.126l.055-.083v-.708a8.512,8.512,0,0,0-.575-2.866c-.077-.21-.162-.421-.251-.634.212.089.424.175.634.251a8.515,8.515,0,0,0,2.866.575h.709l.082-.056a8.386,8.386,0,0,0,1.126-.22,12.6,12.6,0,0,0,1.587-.555c-.09.214-.176.428-.253.639a8.475,8.475,0,0,0-.575,2.866v.708l.055.083a8.4,8.4,0,0,0,.22,1.126,12.7,12.7,0,0,0,.558,1.592,12.669,12.669,0,0,0-1.592-.558A8.385,8.385,0,0,0,52.172,54.111ZM49.93,23.091a2.744,2.744,0,0,1-.772-.592,4.368,4.368,0,0,1-.892-1.617,8.039,8.039,0,0,1-.357-2.47,12.516,12.516,0,0,1,.914-4.546,14.251,14.251,0,0,1,2.554-4.157,14.336,14.336,0,0,1,1.39,1.845,13.2,13.2,0,0,1,2.088,6.857,8.276,8.276,0,0,1-.285,2.234,4.2,4.2,0,0,1-1.206,2.087,2.643,2.643,0,0,1-.831.488,3.342,3.342,0,0,1-1.151.187A3.133,3.133,0,0,1,49.93,23.091ZM29.5,10.919a10.577,10.577,0,0,1,4-4.55A10.724,10.724,0,0,1,39.189,4.68a17.857,17.857,0,0,1,7.094,1.357,14.574,14.574,0,0,1,1.453.731,18.749,18.749,0,0,0-1.7,2.3,17.865,17.865,0,0,0-2.8,9.347,12.971,12.971,0,0,0,.461,3.5,8.853,8.853,0,0,0,2.65,4.359,7.321,7.321,0,0,0,2.294,1.347,8.042,8.042,0,0,0,2.749.468,7.816,7.816,0,0,0,3.577-.828,7.409,7.409,0,0,0,2.091-1.594,9.014,9.014,0,0,0,1.9-3.338,12.667,12.667,0,0,0,.585-3.916,17.143,17.143,0,0,0-1.244-6.27,18.9,18.9,0,0,0-3.269-5.374A17.052,17.052,0,0,1,63.574,4.68a10.877,10.877,0,0,1,7.3,2.932,10.33,10.33,0,0,1,2.388,3.307,10.213,10.213,0,0,1,.9,4.255,21.664,21.664,0,0,1-2.78,9.733A49.92,49.92,0,0,1,60.529,38.458a36.3,36.3,0,0,1-5.676,4.21,14.293,14.293,0,0,1-2.2,1.064,4.1,4.1,0,0,1-1.267.294h-.016a2.913,2.913,0,0,1-.695-.116,11.633,11.633,0,0,1-2.555-1.124,36.391,36.391,0,0,1-6.2-4.61,51.8,51.8,0,0,1-9.225-10.959,32.069,32.069,0,0,1-3-6.173A17.981,17.981,0,0,1,28.6,15.175,10.242,10.242,0,0,1,29.5,10.919ZM15.174,74.162a10.226,10.226,0,0,1-4.255-.9,10.344,10.344,0,0,1-3.307-2.388,10.872,10.872,0,0,1-2.931-7.3,17.041,17.041,0,0,1,2.089-8.551,18.9,18.9,0,0,0,5.373,3.269,17.145,17.145,0,0,0,6.27,1.244,12.713,12.713,0,0,0,3.916-.585,9.015,9.015,0,0,0,3.338-1.9,7.409,7.409,0,0,0,1.594-2.091,7.816,7.816,0,0,0,.828-3.577,8.041,8.041,0,0,0-.468-2.749,7.306,7.306,0,0,0-1.347-2.294,8.852,8.852,0,0,0-4.359-2.65,12.963,12.963,0,0,0-3.5-.461,17.857,17.857,0,0,0-9.347,2.8,18.743,18.743,0,0,0-2.3,1.7,14.8,14.8,0,0,1-.731-1.453,17.857,17.857,0,0,1-1.357-7.094A10.721,10.721,0,0,1,6.369,33.5a10.579,10.579,0,0,1,4.551-4,10.25,10.25,0,0,1,4.255-.9,18,18,0,0,1,5.869,1.095,31.973,31.973,0,0,1,6.173,3,51.76,51.76,0,0,1,10.959,9.225,36.343,36.343,0,0,1,4.61,6.2,11.623,11.623,0,0,1,1.124,2.555,2.9,2.9,0,0,1,.115.695v.016a4.09,4.09,0,0,1-.293,1.267,14.335,14.335,0,0,1-1.065,2.2,36.231,36.231,0,0,1-4.21,5.676A49.908,49.908,0,0,1,24.907,71.382,21.676,21.676,0,0,1,15.174,74.162ZM9.71,51.377a14.2,14.2,0,0,1,4.156-2.554,12.5,12.5,0,0,1,4.546-.914,8.047,8.047,0,0,1,2.471.357,4.362,4.362,0,0,1,1.616.893,2.732,2.732,0,0,1,.593.772,3.135,3.135,0,0,1,.317,1.452,3.341,3.341,0,0,1-.187,1.151,2.638,2.638,0,0,1-.487.831,4.219,4.219,0,0,1-2.088,1.206,8.306,8.306,0,0,1-2.234.285,13.2,13.2,0,0,1-6.857-2.088A14.365,14.365,0,0,1,9.71,51.377ZM52.532,79.541a2.642,2.642,0,0,1,.831.488,4.207,4.207,0,0,1,1.206,2.088,8.272,8.272,0,0,1,.285,2.234,13.2,13.2,0,0,1-2.088,6.857,14.279,14.279,0,0,1-1.39,1.845A14.248,14.248,0,0,1,48.823,88.9a12.512,12.512,0,0,1-.914-4.545,8.045,8.045,0,0,1,.357-2.471,4.357,4.357,0,0,1,.892-1.616,2.73,2.73,0,0,1,.772-.593,3.143,3.143,0,0,1,1.452-.318A3.36,3.36,0,0,1,52.532,79.541Zm20.729,12.3a10.347,10.347,0,0,1-2.388,3.307,10.875,10.875,0,0,1-7.3,2.931,17.052,17.052,0,0,1-8.552-2.089,18.9,18.9,0,0,0,3.269-5.374,17.139,17.139,0,0,0,1.244-6.269,12.673,12.673,0,0,0-.585-3.917,9.027,9.027,0,0,0-1.9-3.338A7.424,7.424,0,0,0,54.958,75.5a7.814,7.814,0,0,0-3.577-.827,8,8,0,0,0-2.749.468,7.3,7.3,0,0,0-2.294,1.347,8.856,8.856,0,0,0-2.65,4.359,12.977,12.977,0,0,0-.461,3.5,17.862,17.862,0,0,0,2.8,9.346,18.8,18.8,0,0,0,1.7,2.3,14.915,14.915,0,0,1-1.453.731,17.857,17.857,0,0,1-7.094,1.356A10.723,10.723,0,0,1,33.5,96.394a10.573,10.573,0,0,1-4-4.55,10.239,10.239,0,0,1-.9-4.256,17.985,17.985,0,0,1,1.094-5.869,32.062,32.062,0,0,1,3-6.172,51.786,51.786,0,0,1,9.225-10.96,36.383,36.383,0,0,1,6.2-4.61,11.626,11.626,0,0,1,2.555-1.124,2.959,2.959,0,0,1,.695-.116h.016a4.1,4.1,0,0,1,1.267.294,14.359,14.359,0,0,1,2.2,1.064,36.3,36.3,0,0,1,5.676,4.21A49.913,49.913,0,0,1,71.382,77.856a21.664,21.664,0,0,1,2.78,9.732A10.219,10.219,0,0,1,73.261,91.845Zm21.89-20.971a10.343,10.343,0,0,1-3.307,2.388,10.227,10.227,0,0,1-4.256.9,21.676,21.676,0,0,1-9.732-2.78A49.9,49.9,0,0,1,64.305,60.528a36.181,36.181,0,0,1-4.211-5.676,14.335,14.335,0,0,1-1.064-2.2,4.1,4.1,0,0,1-.294-1.267v-.016a2.957,2.957,0,0,1,.116-.695,11.653,11.653,0,0,1,1.124-2.555,36.429,36.429,0,0,1,4.61-6.2,51.761,51.761,0,0,1,10.96-9.225,31.953,31.953,0,0,1,6.173-3A18,18,0,0,1,87.589,28.6a10.253,10.253,0,0,1,4.255.9,10.579,10.579,0,0,1,4.551,4,10.726,10.726,0,0,1,1.688,5.687,17.858,17.858,0,0,1-1.356,7.094A14.816,14.816,0,0,1,96,47.737a18.735,18.735,0,0,0-2.3-1.7,17.859,17.859,0,0,0-9.347-2.8,12.974,12.974,0,0,0-3.5.461,8.856,8.856,0,0,0-4.359,2.65,7.32,7.32,0,0,0-1.346,2.294,8,8,0,0,0-.468,2.749,7.826,7.826,0,0,0,.827,3.577A7.44,7.44,0,0,0,77.1,57.049a9.028,9.028,0,0,0,3.338,1.9,12.723,12.723,0,0,0,3.917.585,17.14,17.14,0,0,0,6.269-1.244,18.9,18.9,0,0,0,5.374-3.269,17.049,17.049,0,0,1,2.089,8.551A10.872,10.872,0,0,1,95.152,70.874Zm-2.1-19.5a14.309,14.309,0,0,1-1.845,1.39,13.2,13.2,0,0,1-6.857,2.088,8.3,8.3,0,0,1-2.234-.285,4.22,4.22,0,0,1-2.088-1.206,2.642,2.642,0,0,1-.488-.831,3.363,3.363,0,0,1-.186-1.151,3.134,3.134,0,0,1,.317-1.452,2.719,2.719,0,0,1,.593-.772,4.355,4.355,0,0,1,1.616-.893,8.046,8.046,0,0,1,2.471-.357,12.49,12.49,0,0,1,4.545.914A14.2,14.2,0,0,1,93.054,51.377Z" transform="translate(128.479 25.468) rotate(90)" fill="#4ced6b"/><path d="M1544.287,612.571a3.216,3.216,0,0,1,1.078,1.484,3.64,3.64,0,0,1,.112,1.921l-.635,3.335a3.648,3.648,0,0,1-.811,1.745,3.174,3.174,0,0,1-1.548.976,4.381,4.381,0,0,1-2.06.056,4.494,4.494,0,0,1-1.878-.784,3.16,3.16,0,0,1-1.091-1.42,3.322,3.322,0,0,1-.135-1.843c.016-.086.084-.129.2-.126l1.708.221.029.006c.1.018.134.081.114.187a1.676,1.676,0,0,0,.235,1.316,1.717,1.717,0,0,0,1.147.7,1.734,1.734,0,0,0,1.336-.224,1.673,1.673,0,0,0,.7-1.138l.663-3.479a1.654,1.654,0,0,0-.239-1.3,1.932,1.932,0,0,0-2.482-.473,1.656,1.656,0,0,0-.7,1.123q-.03.159-.2.126l-1.675-.394a.185.185,0,0,1-.115-.067.135.135,0,0,1-.031-.111,3.367,3.367,0,0,1,.8-1.672,3.194,3.194,0,0,1,1.539-.933,4.42,4.42,0,0,1,2.036-.046A4.312,4.312,0,0,1,1544.287,612.571Z" transform="translate(-1477.88 -468.484)" fill="#fff"/><path d="M1507.236,601.709a3.379,3.379,0,0,1,.719,1.75,3.85,3.85,0,0,1-.336,1.979l-1.26,2.881a3.773,3.773,0,0,1-1.215,1.569,3.341,3.341,0,0,1-1.766.647,4.67,4.67,0,0,1-3.717-1.625,3.344,3.344,0,0,1-.724-1.736,3.77,3.77,0,0,1,.327-1.958l1.259-2.881a3.882,3.882,0,0,1,1.227-1.6,3.315,3.315,0,0,1,1.772-.661,4.29,4.29,0,0,1,2.051.391A4.2,4.2,0,0,1,1507.236,601.709Zm-3.779.336a1.878,1.878,0,0,0-1.005,1.052l-1.3,2.962a1.922,1.922,0,0,0-.1,1.456,1.724,1.724,0,0,0,1,1.005,1.706,1.706,0,0,0,1.4.043,1.919,1.919,0,0,0,1-1.062l1.3-2.962a1.893,1.893,0,0,0,.1-1.449,1.719,1.719,0,0,0-.986-.992A1.742,1.742,0,0,0,1503.456,602.045Z" transform="translate(-1455.192 -461.624)" fill="#fff"/><path d="M1459.854,585.056l-1.373-1.036a.169.169,0,0,1-.068-.116.171.171,0,0,1,.034-.131l5.982-7.931a.177.177,0,0,1,.248-.035l1.372,1.036a.177.177,0,0,1,.035.247l-3.9,5.174c-.024.031-.028.053-.012.065a.079.079,0,0,0,.073,0l2.713-1.01a.23.23,0,0,1,.235.031l.692.522a.229.229,0,0,1,.093.218l-.225,2.885c0,.035.006.057.025.065s.04,0,.063-.035l3.894-5.162a.168.168,0,0,1,.116-.069.171.171,0,0,1,.131.034l1.373,1.035a.17.17,0,0,1,.069.116.167.167,0,0,1-.034.131l-5.982,7.93a.175.175,0,0,1-.247.035l-1.373-1.035a.232.232,0,0,1-.094-.218l.3-4.061q.018-.1-.07-.053l-3.834,1.4A.23.23,0,0,1,1459.854,585.056Z" transform="translate(-1431.221 -447.246)" fill="#fff"/><path d="M1440.215,554.826a3.247,3.247,0,0,1-.1,1.822,3.533,3.533,0,0,1-1.117,1.544l-5.162,4.272a.17.17,0,0,1-.129.04.168.168,0,0,1-.119-.063l-1.1-1.325a.175.175,0,0,1,.024-.248l5.174-4.282a1.735,1.735,0,1,0-2.211-2.672L1430.3,558.2a.172.172,0,0,1-.129.04.168.168,0,0,1-.119-.064l-1.1-1.325a.176.176,0,0,1,.023-.248l5.163-4.272a3.531,3.531,0,0,1,1.725-.808,3.247,3.247,0,0,1,1.809.238,4.722,4.722,0,0,1,2.539,3.068Z" transform="translate(-1413.766 -432.87)" fill="#fff"/><path d="M1407.7,521.591a.169.169,0,0,1-.1-.089l-.767-1.539a.176.176,0,0,1,.079-.237l8.892-4.429a.176.176,0,0,1,.237.08l.74,1.486a.209.209,0,0,1-.014.236l-3.933,6.211c-.017.031-.02.054-.006.069s.037.014.072,0l5.538-2.791a.171.171,0,0,1,.135-.009.168.168,0,0,1,.1.089l.767,1.538a.175.175,0,0,1-.079.236l-8.891,4.43a.177.177,0,0,1-.237-.08l-.74-1.486a.211.211,0,0,1,.014-.236l3.913-6.185c.018-.031.02-.054.007-.069s-.037-.014-.073,0l-5.518,2.766A.17.17,0,0,1,1407.7,521.591Z" transform="translate(-1400.686 -411.445)" fill="#fff"/><path d="M1407.873,494.238a.171.171,0,0,1-.107.083l-9.573,2.652a.175.175,0,0,1-.217-.123l-.459-1.657a.176.176,0,0,1,.123-.217l9.573-2.652a.17.17,0,0,1,.134.016.172.172,0,0,1,.083.107l.459,1.657A.169.169,0,0,1,1407.873,494.238Z" transform="translate(-1395.18 -397.857)" fill="#fff"/><path d="M1402.34,462.98a.166.166,0,0,1-.12.062l-9.9.834a.167.167,0,0,1-.128-.04.172.172,0,0,1-.062-.12l-.308-3.661a4.5,4.5,0,0,1,.225-1.958,3.016,3.016,0,0,1,.983-1.373,2.943,2.943,0,0,1,1.588-.591l4.041-.34a2.94,2.94,0,0,1,1.664.317,3.006,3.006,0,0,1,1.2,1.189,4.505,4.505,0,0,1,.55,1.893l.308,3.66A.169.169,0,0,1,1402.34,462.98Zm-1.9-1.941-.15-1.772a1.418,1.418,0,0,0-.545-1.053,1.786,1.786,0,0,0-1.252-.329l-3.368.284a1.731,1.731,0,0,0-1.18.52,1.452,1.452,0,0,0-.359,1.158l.148,1.757a.065.065,0,0,0,.079.067l6.56-.553A.065.065,0,0,0,1400.444,461.038Z" transform="translate(-1391.802 -376.233)" fill="#fff"/><path d="M1403.07,419.533l-1.486.243c-.042.015-.064.036-.068.065l-.485,3.582a.087.087,0,0,0,.048.08l1.37.616a.184.184,0,0,1,.12.209l-.25,1.85a.165.165,0,0,1-.069.124.161.161,0,0,1-.155-.006l-9.419-4.478a.184.184,0,0,1-.12-.209l.309-2.287a.186.186,0,0,1,.171-.169l10.27-1.813a.164.164,0,0,1,.075,0c.087.011.124.071.109.178l-.251,1.85A.184.184,0,0,1,1403.07,419.533Zm-3.557,3.166.347-2.563c.008-.058-.019-.082-.079-.07l-4.5.725c-.04,0-.059.017-.057.037a.071.071,0,0,0,.045.051l4.151,1.867C1399.475,422.763,1399.506,422.748,1399.513,422.7Z" transform="translate(-1392.247 -353.481)" fill="#fff"/><path d="M1410.094,386.109a.168.168,0,0,1-.135,0l-9.281-3.54a.169.169,0,0,1-.1-.093.17.17,0,0,1,0-.135l1.31-3.432a4.5,4.5,0,0,1,1.053-1.667,3.01,3.01,0,0,1,1.481-.812,2.939,2.939,0,0,1,1.686.156l3.789,1.446a2.942,2.942,0,0,1,1.362,1.007,3.01,3.01,0,0,1,.564,1.592,4.5,4.5,0,0,1-.325,1.944l-1.309,3.433A.167.167,0,0,1,1410.094,386.109Zm-.867-2.572.634-1.661a1.419,1.419,0,0,0-.035-1.185,1.784,1.784,0,0,0-.985-.84l-3.158-1.2a1.734,1.734,0,0,0-1.289-.044,1.454,1.454,0,0,0-.826.888l-.628,1.648a.065.065,0,0,0,.042.095l6.151,2.347A.064.064,0,0,0,1409.228,383.537Z" transform="translate(-1396.988 -329.241)" fill="#fff"/><path d="M1423.492,339.515a.167.167,0,0,1-.026.133l-2.661,4.019a.065.065,0,0,0,.021.1l1.9,1.257a.065.065,0,0,0,.1-.021l1.745-2.635a.175.175,0,0,1,.244-.05l1.189.787a.17.17,0,0,1,.076.112.168.168,0,0,1-.026.133l-1.744,2.635a.065.065,0,0,0,.021.1l1.985,1.314a.065.065,0,0,0,.1-.021l2.661-4.019a.175.175,0,0,1,.244-.05l1.189.787a.177.177,0,0,1,.05.244l-3.748,5.661a.176.176,0,0,1-.244.05l-8.283-5.484a.176.176,0,0,1-.05-.244l3.748-5.661a.169.169,0,0,1,.112-.076.172.172,0,0,1,.133.026l1.188.787A.17.17,0,0,1,1423.492,339.515Z" transform="translate(-1407.428 -306.878)" fill="#fff"/><path d="M1467.761,306.569a.169.169,0,0,1-.116-.07l-5.878-8.008a.172.172,0,0,1-.032-.131.169.169,0,0,1,.07-.116l2.962-2.174a4.509,4.509,0,0,1,1.788-.829,3.011,3.011,0,0,1,1.684.122,2.946,2.946,0,0,1,1.333,1.045l2.4,3.27a2.94,2.94,0,0,1,.6,1.584,3.012,3.012,0,0,1-.389,1.643,4.509,4.509,0,0,1-1.328,1.458l-2.962,2.173A.166.166,0,0,1,1467.761,306.569Zm.666-2.631,1.434-1.052a1.418,1.418,0,0,0,.613-1.015,1.783,1.783,0,0,0-.372-1.24l-2-2.725a1.733,1.733,0,0,0-1.059-.736,1.455,1.455,0,0,0-1.176.3l-1.421,1.044a.065.065,0,0,0-.016.1l3.9,5.307A.065.065,0,0,0,1468.427,303.938Z" transform="translate(-1433.188 -281.186)" fill="#fff"/><path d="M1509.467,284.457l-.981-1.143a.086.086,0,0,0-.09-.025l-3.312,1.447a.087.087,0,0,0-.044.083l.186,1.49a.185.185,0,0,1-.116.211l-1.71.747a.165.165,0,0,1-.142.006.161.161,0,0,1-.075-.136l-1.069-10.374a.185.185,0,0,1,.116-.211l2.114-.924a.184.184,0,0,1,.234.058l6.886,7.832a.167.167,0,0,1,.043.061q.053.121-.1.186l-1.71.747A.184.184,0,0,1,1509.467,284.457Zm-4.554-1.394,2.37-1.036c.054-.024.06-.058.019-.1l-2.96-3.469c-.025-.032-.045-.042-.061-.03a.068.068,0,0,0-.02.065l.563,4.517C1504.838,283.065,1504.867,283.084,1504.912,283.064Z" transform="translate(-1457.083 -269.609)" fill="#fff"/><path d="M1564.9,271.071a3.219,3.219,0,0,1-1.4-1.191,3.643,3.643,0,0,1-.56-1.842l-.163-3.39a3.644,3.644,0,0,1,.38-1.887,3.171,3.171,0,0,1,1.276-1.312,4.383,4.383,0,0,1,1.989-.537,4.5,4.5,0,0,1,2.009.322,3.165,3.165,0,0,1,1.393,1.125,3.33,3.33,0,0,1,.563,1.76c0,.088-.052.145-.169.17l-1.712.185h-.029q-.147.007-.155-.154a1.673,1.673,0,0,0-.537-1.225,1.713,1.713,0,0,0-1.277-.409,1.734,1.734,0,0,0-1.247.531,1.676,1.676,0,0,0-.417,1.271l.17,3.537a1.653,1.653,0,0,0,.536,1.21,1.733,1.733,0,0,0,1.292.409,1.712,1.712,0,0,0,1.232-.53,1.657,1.657,0,0,0,.418-1.256c-.005-.108.051-.164.168-.17l1.721-.009a.185.185,0,0,1,.127.038.132.132,0,0,1,.056.1,3.357,3.357,0,0,1-.391,1.814,3.2,3.2,0,0,1-1.278,1.268,4.42,4.42,0,0,1-1.968.521A4.326,4.326,0,0,1,1564.9,271.071Z" transform="translate(-1492.989 -260.905)" fill="#fff"/><path d="M1600.545,272.436a.168.168,0,0,1-.03-.132l1.652-9.8a.175.175,0,0,1,.2-.145l1.7.286a.175.175,0,0,1,.144.2L1602.837,271a.065.065,0,0,0,.06.085l4.738.8a.175.175,0,0,1,.144.2l-.237,1.406a.176.176,0,0,1-.2.145l-6.68-1.127A.169.169,0,0,1,1600.545,272.436Z" transform="translate(-1515.319 -261.767)" fill="#fff"/><path d="M1634.908,277.959a.172.172,0,0,1-.006-.135l3.4-9.334a.176.176,0,0,1,.226-.105l1.615.589a.17.17,0,0,1,.1.091.168.168,0,0,1,.006.135l-3.4,9.334a.175.175,0,0,1-.226.105l-1.615-.588A.168.168,0,0,1,1634.908,277.959Zm3.869-10.516a.161.161,0,0,1,.064-.133l1.24-1.128a.219.219,0,0,1,.252-.049l1.4.508a.131.131,0,0,1,.035.247l-1.489,1.038a.231.231,0,0,1-.234.04l-1.16-.422C1638.817,267.52,1638.782,267.486,1638.777,267.443Z" transform="translate(-1535.665 -263.987)" fill="#fff"/><path d="M1667.5,286.123a.17.17,0,0,1,.134.02l1.474.885a.176.176,0,0,1,.061.242l-5.114,8.517a.175.175,0,0,1-.242.06l-1.423-.855a.211.211,0,0,1-.116-.207l-.025-7.352c0-.035-.012-.056-.032-.062s-.039.008-.059.042l-3.167,5.332a.176.176,0,0,1-.242.06l-1.474-.885a.176.176,0,0,1-.06-.242l5.113-8.517a.175.175,0,0,1,.242-.06l1.424.854a.212.212,0,0,1,.116.207l.028,7.318c0,.035.012.056.032.062s.039-.008.059-.041l3.164-5.3A.169.169,0,0,1,1667.5,286.123Z" transform="translate(-1548.861 -274.026)" fill="#fff"/><path d="M1688.9,315.453a.17.17,0,0,1,.045-.127l6.63-7.4a.169.169,0,0,1,.122-.058.168.168,0,0,1,.127.045l1.28,1.147a.175.175,0,0,1,.014.249l-6.631,7.4a.169.169,0,0,1-.121.058.167.167,0,0,1-.127-.045l-1.281-1.147A.168.168,0,0,1,1688.9,315.453Z" transform="translate(-1567.624 -288.7)" fill="#fff"/><path d="M1708.857,337.075a3.218,3.218,0,0,1,.179-1.826,3.647,3.647,0,0,1,1.192-1.511l2.689-2.072a3.64,3.64,0,0,1,1.766-.766,3.169,3.169,0,0,1,1.805.3,4.385,4.385,0,0,1,1.578,1.326,4.492,4.492,0,0,1,.883,1.833,3.162,3.162,0,0,1-.127,1.785,3.325,3.325,0,0,1-1.123,1.468q-.1.081-.236-.041l-1.131-1.3-.018-.023a.137.137,0,0,1,.039-.215,1.677,1.677,0,0,0,.7-1.141,1.934,1.934,0,0,0-1.543-2,1.675,1.675,0,0,0-1.281.384l-2.805,2.161a1.652,1.652,0,0,0-.687,1.132,1.731,1.731,0,0,0,.4,1.294,1.713,1.713,0,0,0,1.139.709,1.656,1.656,0,0,0,1.27-.375.15.15,0,0,1,.236.041l.991,1.407a.187.187,0,0,1,.041.126.134.134,0,0,1-.05.1,3.365,3.365,0,0,1-1.712.716,3.189,3.189,0,0,1-1.77-.324,4.427,4.427,0,0,1-1.553-1.317A4.33,4.33,0,0,1,1708.857,337.075Z" transform="translate(-1579.404 -302.313)" fill="#fff"/><path d="M1728.733,376l1.123-1a.087.087,0,0,0,.023-.092l-1.513-3.283a.086.086,0,0,0-.084-.042l-1.486.216a.185.185,0,0,1-.214-.112l-.781-1.695a.165.165,0,0,1-.008-.142.161.161,0,0,1,.134-.078l10.35-1.275a.185.185,0,0,1,.214.112l.966,2.1a.186.186,0,0,1-.054.235l-7.693,7.041a.161.161,0,0,1-.061.044c-.079.037-.143.006-.188-.092l-.781-1.695A.183.183,0,0,1,1728.733,376Zm1.3-4.581,1.082,2.349c.025.053.06.059.105.017l3.41-3.028c.031-.025.041-.046.028-.062a.067.067,0,0,0-.065-.018l-4.505.652C1730.033,371.348,1730.015,371.378,1730.035,371.422Z" transform="translate(-1589.453 -324.578)" fill="#fff"/><path d="M1744.867,431.015a3.034,3.034,0,0,1,.976-1.43,2.808,2.808,0,0,1,1.588-.588l.322-.022a.172.172,0,0,1,.128.043.169.169,0,0,1,.06.121l.116,1.671a.175.175,0,0,1-.164.188l-.219.015a1.2,1.2,0,0,0-.952.611,2.408,2.408,0,0,0-.3,1.494,1.737,1.737,0,0,0,.41,1.135,1.037,1.037,0,0,0,.84.325.823.823,0,0,0,.578-.276,2.079,2.079,0,0,0,.381-.667q.155-.415.417-1.317a12.527,12.527,0,0,1,.574-1.712,3.345,3.345,0,0,1,.881-1.209,2.414,2.414,0,0,1,1.471-.566,2.65,2.65,0,0,1,1.571.348,2.9,2.9,0,0,1,1.1,1.191,4.628,4.628,0,0,1,.481,1.838,4.763,4.763,0,0,1-.259,2.014,3.246,3.246,0,0,1-1.013,1.44,2.837,2.837,0,0,1-1.615.605l-.22.015a.176.176,0,0,1-.188-.164l-.117-1.685a.175.175,0,0,1,.164-.188l.117-.008a1.333,1.333,0,0,0,1.013-.578,2.067,2.067,0,0,0,.337-1.415,1.758,1.758,0,0,0-.368-1.057.957.957,0,0,0-.833-.333.882.882,0,0,0-.6.27,2,2,0,0,0-.4.705q-.167.461-.439,1.422a17.311,17.311,0,0,1-.561,1.681,3.273,3.273,0,0,1-.8,1.131,2.3,2.3,0,0,1-1.469.58,2.632,2.632,0,0,1-2.247-.861,4.315,4.315,0,0,1-.989-2.686A5.224,5.224,0,0,1,1744.867,431.015Z" transform="translate(-1600.602 -360.28)" fill="#fff"/><path d="M1743.773,468.595a3.382,3.382,0,0,1,1.5-1.147,3.837,3.837,0,0,1,2-.189l3.109.469a3.777,3.777,0,0,1,1.831.767,3.348,3.348,0,0,1,1.083,1.538,4.675,4.675,0,0,1-.606,4.011,3.348,3.348,0,0,1-1.489,1.149,3.765,3.765,0,0,1-1.976.192l-3.11-.469a3.883,3.883,0,0,1-1.86-.771,3.31,3.31,0,0,1-1.1-1.54,4.293,4.293,0,0,1-.154-2.082A4.2,4.2,0,0,1,1743.773,468.595Zm1.3,3.563a1.879,1.879,0,0,0,1.277.7l3.2.482a1.92,1.92,0,0,0,1.432-.282,1.9,1.9,0,0,0,.391-2.586,1.92,1.92,0,0,0-1.285-.691l-3.2-.483a1.894,1.894,0,0,0-1.425.283,1.718,1.718,0,0,0-.7,1.209A1.745,1.745,0,0,0,1745.078,472.158Z" transform="translate(-1599.612 -382.996)" fill="#fff"/><path d="M1731.388,507.719l4.46-.221a.1.1,0,0,0,.087-.061l.5-1.272a.065.065,0,0,0-.041-.1l-3.734-1.467a.177.177,0,0,1-.1-.229l.629-1.6a.175.175,0,0,1,.229-.1l9.245,3.633a.176.176,0,0,1,.1.229l-1.537,3.911a3.442,3.442,0,0,1-.96,1.4,2.679,2.679,0,0,1-1.415.628,3.315,3.315,0,0,1-1.66-.234,2.906,2.906,0,0,1-1.411-1.091,2.659,2.659,0,0,1-.426-1.668.07.07,0,0,0-.08-.078l-4.6.339a.216.216,0,0,1-.093,0c-.073-.029-.09-.093-.05-.193l.661-1.682A.209.209,0,0,1,1731.388,507.719Zm8.958-.1-2.339-.919a.065.065,0,0,0-.1.042l-.7,1.792a1.406,1.406,0,0,0-.026,1.071,1.255,1.255,0,0,0,.747.712,1.279,1.279,0,0,0,1.038-.011,1.391,1.391,0,0,0,.717-.8l.7-1.791A.065.065,0,0,0,1740.345,507.624Z" transform="translate(-1592.251 -403.979)" fill="#fff"/><path d="M1722.9,550.27a.171.171,0,0,1-.132-.027l-1.193-.806a.169.169,0,0,1-.075-.112.171.171,0,0,1,.027-.132l1.473-2.18a.065.065,0,0,0-.02-.1l-6.832-4.614a.171.171,0,0,1-.075-.113.173.173,0,0,1,.027-.133l.962-1.425a.176.176,0,0,1,.245-.047l6.832,4.614a.065.065,0,0,0,.1-.02l1.431-2.119a.175.175,0,0,1,.245-.048l1.194.806a.175.175,0,0,1,.047.245l-4.145,6.138A.172.172,0,0,1,1722.9,550.27Z" transform="translate(-1583.708 -426.401)" fill="#fff"/><path d="M1693.376,567.264a3.244,3.244,0,0,1,1.825-.016,3.532,3.532,0,0,1,1.614,1.013l4.6,4.871a.175.175,0,0,1-.007.249l-1.249,1.181a.173.173,0,0,1-.126.049.171.171,0,0,1-.123-.056l-4.611-4.882a1.735,1.735,0,1,0-2.521,2.381l4.611,4.882a.172.172,0,0,1,.048.127.167.167,0,0,1-.055.123l-1.25,1.18a.175.175,0,0,1-.249-.007l-4.6-4.871a3.531,3.531,0,0,1-.92-1.669,3.247,3.247,0,0,1,.12-1.821,4.717,4.717,0,0,1,2.9-2.734Z" transform="translate(-1568.446 -442.129)" fill="#fff"/><path d="M1664.309,587.992a.17.17,0,0,1,.108.081l5.051,8.554a.172.172,0,0,1,.019.133.169.169,0,0,1-.081.108l-3.163,1.868a4.506,4.506,0,0,1-1.862.647,3.009,3.009,0,0,1-1.664-.289,2.945,2.945,0,0,1-1.222-1.173l-2.062-3.493a2.94,2.94,0,0,1-.437-1.636,3.006,3.006,0,0,1,.551-1.6,4.5,4.5,0,0,1,1.466-1.318l3.164-1.868A.17.17,0,0,1,1664.309,587.992Zm-.925,2.552-1.531.9a1.418,1.418,0,0,0-.711.949,1.787,1.787,0,0,0,.246,1.271l1.719,2.911a1.734,1.734,0,0,0,.981.837,1.453,1.453,0,0,0,1.2-.179l1.519-.9a.064.064,0,0,0,.026-.1l-3.347-5.669A.064.064,0,0,0,1663.383,590.544Z" transform="translate(-1549.928 -454.475)" fill="#fff"/><path d="M1622.979,606.108l.861,1.236a.085.085,0,0,0,.088.033l3.44-1.108c.028-.009.046-.036.052-.078l-.036-1.5a.185.185,0,0,1,.136-.2l1.777-.572a.142.142,0,0,1,.2.151l.025,10.429a.185.185,0,0,1-.137.2l-2.2.707a.185.185,0,0,1-.227-.081l-6.067-8.482a.16.16,0,0,1-.036-.066c-.027-.084.011-.142.113-.176l1.776-.572A.184.184,0,0,1,1622.979,606.108Zm4.391,1.843-2.462.793c-.056.018-.065.052-.029.1l2.6,3.748c.021.034.04.047.058.035a.067.067,0,0,0,.026-.062l-.107-4.551C1627.445,607.958,1627.418,607.935,1627.371,607.951Z" transform="translate(-1527.357 -463.896)" fill="#fff"/></g><circle cx="1.429" cy="1.429" r="1.429" transform="translate(79.189 148.334)" fill="#fff"/></g><g transform="matrix(1, 0, 0, 1, 358.15, 778.65)" filter="url(#a)"><rect width="193" height="193" rx="96.5" transform="translate(19 19)" fill="none" stroke="#4ced6b" stroke-linecap="round" stroke-linejoin="round" stroke-width="2"/></g></g><g transform="translate(461.127 181)"><rect width="60" height="60" rx="20" transform="translate(0 0)" fill="#8a67ec"/><g transform="translate(13.084 12.747)"><path d="M288.793,24.577a17.438,17.438,0,0,1-16.86-21.934l.019-.073a17.428,17.428,0,0,1,28.51-8.333h0a7.115,7.115,0,0,1,.507,10.051c-.078.087-.158.171-.241.253l-2.634,2.634,2.61,2.609A7.182,7.182,0,0,1,302.8,14.99a6.911,6.911,0,0,1-2.25,4.992A17.361,17.361,0,0,1,288.793,24.577Zm.036-32.459A15.183,15.183,0,0,0,274.256,3.195a15.038,15.038,0,0,0,24.681,15.029,4.55,4.55,0,0,0,1.477-3.286,4.782,4.782,0,0,0-1.4-3.471l-2.609-2.611L293.4,11.864a7.038,7.038,0,0,1-4.643,1.908,6.583,6.583,0,0,1-6.6-6.563c0-.11,0-.222.007-.333A6.633,6.633,0,0,1,288.77.566h.192a6.452,6.452,0,0,1,4.459,1.925L296.41,5.48l2.633-2.634a4.727,4.727,0,0,0-.007-6.686c-.056-.056-.114-.11-.172-.164h0a15.093,15.093,0,0,0-6.63-3.484,14.73,14.73,0,0,0-3.4-.394Zm-.053,10.836a4.29,4.29,0,0,0-4.23,4.026,4.2,4.2,0,0,0,3.98,4.4c.078,0,.156.006.232.006a4.633,4.633,0,0,0,2.95-1.2l3.014-3.014L291.65,4.1a4.008,4.008,0,0,0-2.758-1.137Z" transform="translate(-271.335 10.276)" fill="#fff"/></g></g></g></svg>