<svg xmlns="http://www.w3.org/2000/svg" viewBox="0 0 107.251 107.252"><g transform="translate(98.251 9) rotate(90)" fill="#4ced6b"><path d="M 34.05941390991211 93.75121307373047 L 34.03179931640625 93.75119781494141 C 31.78955268859863 93.74744415283203 29.58482933044434 93.31662750244141 27.47587585449219 92.47071838378906 C 25.39738273620605 91.63703918457031 23.50912284851074 90.43936157226563 21.86356735229492 88.91094970703125 L 21.86136817932129 88.90890502929688 L 21.85918426513672 88.90685272216797 C 20.1341381072998 87.30034637451172 18.77444458007813 85.41279602050781 17.81784439086914 83.29660797119141 C 16.79255294799805 81.0306396484375 16.27327537536621 78.59818267822266 16.27512168884277 76.06827545166016 C 16.27691268920898 74.96575927734375 16.36803436279297 73.84381866455078 16.5478401184082 72.70458984375 C 15.40450572967529 72.88487243652344 14.28001403808594 72.97571563720703 13.18038368225098 72.97607421875 L 13.17364501953125 72.97607421875 C 10.64264488220215 72.97607421875 8.212583541870117 72.45647430419922 5.95098352432251 71.43168640136719 C 2.81778359413147 70.01297760009766 0.1699681431055069 67.69713592529297 -1.705124139785767 64.73500823974609 C -3.531124114990234 61.84688568115234 -4.497108936309814 58.55674743652344 -4.500000953674316 55.21813201904297 C -4.500739574432373 51.78747177124023 -3.871616363525391 48.57988739013672 -2.630108833312988 45.68159484863281 C -2.478414535522461 45.32737350463867 -2.314812183380127 44.974365234375 -2.139862775802612 44.62361145019531 C -3.694451570510864 41.46808624267578 -4.503713130950928 37.85934448242188 -4.499293327331543 34.03104019165039 C -4.495524406433105 31.78942489624023 -4.064893245697021 29.58481025695801 -3.219354867935181 27.47607231140137 C -2.385647296905518 25.39684104919434 -1.187862634658813 23.50833320617676 0.340737372636795 21.86304092407227 L 0.3425527513027191 21.86108779907227 L 0.3443681299686432 21.85913276672363 C 1.950721979141235 20.13424110412598 3.838260412216187 18.77456474304199 5.954537391662598 17.81784057617188 C 8.216444969177246 16.79433250427246 10.64447593688965 16.27505683898926 13.169753074646 16.27505683898926 L 13.18292236328125 16.27505683898926 C 14.28578853607178 16.27684783935547 15.40812015533447 16.36803817749023 16.54782676696777 16.54798698425293 C 16.36802101135254 15.40935039520264 16.27691268920898 14.28831577301025 16.27512168884277 13.18694877624512 C 16.27327537536621 10.65297985076904 16.79255294799805 8.220502853393555 17.81850624084473 5.953056335449219 C 18.77378273010254 3.839887142181396 20.1331672668457 1.952641010284424 21.85826110839844 0.3451794683933258 L 21.86090660095215 0.3427179157733917 L 21.86356735229492 0.3402409851551056 C 23.50922966003418 -1.188266754150391 25.39755249023438 -2.385943651199341 27.47607612609863 -3.219528198242188 C 29.58530616760254 -4.065420627593994 31.79022979736328 -4.496020317077637 34.02962875366211 -4.499359130859375 L 34.06253814697266 -4.499374389648438 C 37.8783073425293 -4.499374389648438 41.47583770751953 -3.690319061279297 44.62227630615234 -2.140565395355225 C 44.97206497192383 -2.314630746841431 45.32559967041016 -2.477941274642944 45.68450546264648 -2.631389856338501 C 48.57835388183594 -3.870912790298462 51.783935546875 -4.50000524520874 55.20944595336914 -4.50000524520874 L 55.21601486206055 -4.50000524520874 C 58.55513763427734 -4.498128414154053 61.84555435180664 -3.532112836837769 64.7330322265625 -1.706389784812927 C 67.69615173339844 0.168625608086586 70.01215362548828 2.816133260726929 71.43199920654297 5.950779438018799 C 72.45804595947266 8.216117858886719 72.977783203125 10.64853286743164 72.97684478759766 13.18056392669678 C 72.97610473632813 14.28081893920898 72.88516235351563 15.40506935119629 72.70510101318359 16.54751777648926 C 73.84332275390625 16.36787033081055 74.96393585205078 16.27684593200684 76.06494903564453 16.27505683898926 L 76.08213806152344 16.27505683898926 C 78.60789489746094 16.27505683898926 81.03590393066406 16.79442596435547 83.29875183105469 17.81874847412109 C 85.4146728515625 18.77531814575195 87.30252075195313 20.13533401489258 88.90781402587891 21.8601188659668 C 90.43914031982422 23.50787162780762 91.63722991943359 25.39647102355957 92.47112274169922 27.47588729858398 C 93.31676483154297 29.58460998535156 93.74744415283203 31.78928756713867 93.75121307373047 34.0286865234375 C 93.75498199462891 37.86001968383789 92.94564819335938 41.4688835144043 91.39143371582031 44.62347793579102 C 91.56674194335938 44.9751091003418 91.73056030273438 45.32891464233398 91.88247680664063 45.68416595458984 C 93.12258148193359 48.57931900024414 93.75190734863281 51.78653335571289 93.75190734863281 55.21424102783203 C 93.74910736083984 58.55644226074219 92.78316497802734 61.84661102294922 90.95851898193359 64.73279571533203 C 89.08200073242188 67.69713592529297 86.43418121337891 70.01296234130859 83.29991912841797 71.43218231201172 C 81.03804779052734 72.45658111572266 78.60810089111328 72.97607421875 76.07789611816406 72.97607421875 C 76.07774353027344 72.97607421875 76.07759857177734 72.97607421875 76.07744598388672 72.97607421875 L 76.07050323486328 72.97607421875 C 74.97169494628906 72.97571563720703 73.84783172607422 72.88492584228516 72.70528411865234 72.70484161376953 C 72.88522338867188 73.84665679931641 72.97610473632813 74.97018432617188 72.97684478759766 76.0692138671875 C 72.977783203125 78.60263824462891 72.45804595947266 81.03508758544922 71.43204498291016 83.30033111572266 C 70.01283264160156 86.43445587158203 67.69680023193359 89.08211517333984 64.73450469970703 90.95674896240234 C 61.846923828125 92.78328704833984 58.55621337890625 93.74942779541016 55.21733856201172 93.75119781494141 L 55.20882797241211 93.75119781494141 C 51.78375244140625 93.75119781494141 48.57838439941406 93.12211608886719 45.68178176879883 91.88142395019531 C 45.32754516601563 91.72994232177734 44.97441864013672 91.56642913818359 44.62342834472656 91.39143371582031 C 41.47650527954102 92.94189453125 37.87765502929688 93.75121307373047 34.05941390991211 93.75121307373047 Z M 54.68274307250977 80.67665100097656 C 54.85953140258789 80.68319702148438 55.03896331787109 80.68659210205078 55.22116851806641 80.68684387207031 L 55.22367477416992 80.68685913085938 L 55.2261848449707 80.68685913085938 L 55.23539733886719 80.68687438964844 C 56.3577995300293 80.68687438964844 57.60216903686523 80.1756591796875 58.4829216003418 79.35274505615234 L 58.48509216308594 79.35071563720703 L 58.48727416992188 79.34868621826172 C 58.93819808959961 78.92847442626953 59.28830718994141 78.44651794433594 59.52782821655273 77.91621398925781 C 59.78595352172852 77.34539794921875 59.91104507446289 76.74281311035156 59.91104507446289 76.07225799560547 L 59.91104507446289 76.06611633300781 L 59.91106033325195 76.05998229980469 C 59.91581344604492 74.32073211669922 59.23979949951172 72.06254577636719 58.00755310058594 69.70139312744141 L 58.00535202026367 69.69719696044922 L 58.00317001342773 69.69297790527344 C 56.18133926391602 66.18412017822266 53.03583145141602 62.26905822753906 49.58895111083984 59.2202262878418 L 49.58689117431641 59.2183952331543 L 49.58481597900391 59.2165641784668 C 48.11333847045898 57.91179656982422 46.62438201904297 56.80178070068359 45.39223098754883 56.09101104736328 C 45.07796859741211 55.90927124023438 44.82197189331055 55.77765274047852 44.62492752075195 55.68418502807617 C 44.45235443115234 55.76590728759766 44.24346923828125 55.87252807617188 44.00347518920898 56.00811767578125 L 43.99858474731445 56.01088714599609 L 43.99367523193359 56.01364135742188 C 42.68030548095703 56.75136566162109 41.01355361938477 57.99859619140625 39.42076873779297 59.43553161621094 C 36.59906005859375 61.97777938842773 34.04587554931641 65.00687408447266 32.22932052612305 67.96682739257813 C 31.26615333557129 69.53348541259766 30.53033828735352 71.04114532470703 30.04046058654785 72.45088958740234 C 29.57404518127441 73.78987121582031 29.33859825134277 75.00559234619141 29.33953666687012 76.06756591796875 C 29.33987617492676 76.7413330078125 29.46525955200195 77.34528350830078 29.72286033630371 77.91562652587891 C 30.08502960205078 78.71685791015625 30.70072174072266 79.40925598144531 31.5028133392334 79.916748046875 C 32.27538299560547 80.40657806396484 33.19367599487305 80.68618011474609 34.02587509155273 80.68614959716797 L 34.0279541015625 80.68614959716797 L 34.03489303588867 80.68614959716797 C 34.213623046875 80.68608856201172 34.39018249511719 80.68283081054688 34.56479644775391 80.67637634277344 C 33.5684700012207 78.28778076171875 33.04869842529297 75.77548217773438 33.04399871826172 73.26950073242188 L 33.04398345947266 73.26362609863281 L 33.04398345947266 73.25775146484375 C 33.04507446289063 71.77170562744141 33.23635101318359 70.33954620361328 33.61250686645508 69.00108337402344 C 34.28789138793945 66.60142517089844 35.5621223449707 64.53834533691406 37.29792022705078 63.03318023681641 C 38.30485534667969 62.16049194335938 39.44817733764648 61.48866271972656 40.69717025756836 61.03548812866211 L 40.69716644287109 61.03548812866211 C 41.93224334716797 60.58535003662109 43.2517204284668 60.35711669921875 44.61895370483398 60.35711669921875 L 44.62891387939453 60.35711669921875 L 44.64065933227539 60.35710144042969 C 46.45176696777344 60.35710144042969 48.22697067260742 60.77505874633789 49.77512741088867 61.5659065246582 C 50.9291877746582 62.15332412719727 51.96672821044922 62.94261169433594 52.85913848876953 63.91197967529297 L 52.86104583740234 63.91405487060547 L 52.86295318603516 63.91613388061523 C 54.02621459960938 65.18288421630859 54.90552139282227 66.71304321289063 55.47644424438477 68.46410369873047 L 55.47732162475586 68.46681213378906 L 55.47821426391602 68.46953582763672 C 55.96152114868164 69.95829010009766 56.20658493041992 71.57038116455078 56.20658493041992 73.26103973388672 C 56.20555114746094 75.63665771484375 55.73579788208008 78.02519226074219 54.81035232543945 80.36224365234375 C 54.76868057250977 80.46738433837891 54.72610473632813 80.57228088378906 54.68274307250977 80.67665100097656 Z M 55.68422317504883 44.62487411499023 C 55.77726364135742 44.82104110717773 55.90792083740234 45.07514953613281 56.08778381347656 45.38591766357422 L 56.08961486816406 45.38907241821289 L 56.0914306640625 45.39222717285156 C 56.80235290527344 46.62516403198242 57.91198348999023 48.11328887939453 59.21593856811523 49.58245468139648 L 59.2186279296875 49.58548736572266 L 59.22132110595703 49.58851623535156 C 62.26995086669922 53.03591918945313 66.18460083007813 56.18157958984375 69.69300079345703 58.0031623840332 L 69.69719696044922 58.00533294677734 L 69.70140075683594 58.00753402709961 C 72.05347442626953 59.23502731323242 74.30630493164063 59.91104125976563 76.04486083984375 59.91104125976563 L 76.06126403808594 59.91102600097656 L 76.06559753417969 59.9110107421875 L 76.06993865966797 59.9110107421875 C 76.7427978515625 59.9106559753418 77.34601593017578 59.78559494018555 77.91407775878906 59.52864074707031 C 78.44666290283203 59.28818130493164 78.92839813232422 58.93822479248047 79.34869384765625 58.48720932006836 L 79.35105895996094 58.48467254638672 L 79.35343170166016 58.48213195800781 C 80.17873382568359 57.5992546081543 80.68967437744141 56.35136413574219 80.68687438964844 55.22544097900391 C 80.68661499023438 55.04177856445313 80.68318176269531 54.86091995239258 80.67656707763672 54.68281936645508 C 80.57263946533203 54.72598648071289 80.46821594238281 54.76836776733398 80.36354064941406 54.80985641479492 C 78.02458190917969 55.73585510253906 75.63607788085938 56.20554733276367 73.26284790039063 56.20650100708008 C 71.57001495361328 56.20548629760742 69.95987701416016 55.96078109741211 68.47264862060547 55.47914886474609 L 68.46846008300781 55.4777946472168 L 68.46427917480469 55.47642517089844 C 66.71334075927734 54.90562438964844 65.18316650390625 54.02636337280273 63.91627502441406 52.86307144165039 L 63.91413879394531 52.86110305786133 L 63.9119987487793 52.85913467407227 C 62.94488143920898 51.96878433227539 62.15601348876953 50.93202972412109 61.56735992431641 49.77775192260742 C 60.77379989624023 48.22486877441406 60.35538482666016 46.44304275512695 60.35718154907227 44.62404632568359 C 60.35659027099609 43.25552368164063 60.5846061706543 41.93497848510742 61.03496551513672 40.69882202148438 C 61.4891242980957 39.44826507568359 62.16095352172852 38.30450439453125 63.0318603515625 37.29928588867188 C 64.53882598876953 35.56174850463867 66.60195159912109 34.28762435913086 68.99969482421875 33.6129035949707 C 70.340087890625 33.23620986938477 71.77230834960938 33.04491806030273 73.25801086425781 33.04391860961914 L 73.26312255859375 33.04391860961914 L 73.26821136474609 33.04391860961914 C 75.77393341064453 33.04791641235352 78.28688049316406 33.56769943237305 80.67635345458984 34.56438446044922 C 80.68279266357422 34.39002227783203 80.68604278564453 34.2134895324707 80.68608856201172 34.03504180908203 C 80.68717193603516 33.19670104980469 80.40758514404297 32.27631759643555 79.91902923583984 31.50528717041016 C 79.40982818603516 30.70107269287109 78.71697998046875 30.08496475219727 77.91453552246094 29.72227096557617 C 77.34506225585938 29.46510314941406 76.74046325683594 29.33945655822754 76.06765747070313 29.33876419067383 L 76.06662750244141 29.33876419067383 C 75.00434112548828 29.33876419067383 73.78927612304688 29.57444190979004 72.45521545410156 30.03924179077148 L 72.45244598388672 30.04021072387695 L 72.44969177246094 30.04116439819336 C 71.04050445556641 30.53008651733398 69.53361511230469 31.26542472839355 67.97089385986328 32.22676467895508 L 67.96859741210938 32.22817993164063 L 67.96629333496094 32.22959518432617 C 65.00791931152344 34.04459381103516 61.97904586791992 36.59765625 59.43761444091797 39.41848754882813 C 58.00010681152344 41.01190185546875 56.75258255004883 42.67914962768555 56.01293563842773 43.99494934082031 L 56.01016998291016 43.99987030029297 L 56.00740051269531 44.00477981567383 C 55.87228775024414 44.24373245239258 55.76588439941406 44.45225143432617 55.68422317504883 44.62487411499023 Z M 8.575139999389648 54.68292617797852 C 8.568663597106934 54.85912322998047 8.56533145904541 55.0378532409668 8.565121650695801 55.21942520141602 L 8.565121650695801 55.22248840332031 L 8.565106391906738 55.22556304931641 C 8.562275886535645 56.35134887695313 9.073245048522949 57.59922409057617 9.898598670959473 58.48221206665039 L 9.900921821594238 58.48470306396484 L 9.903244972229004 58.48717880249023 C 10.32355308532715 58.93819427490234 10.80532169342041 59.28818130493164 11.33516788482666 59.52740859985352 C 11.90596771240234 59.78557968139648 12.50896835327148 59.9106559753418 13.18126010894775 59.9110107421875 L 13.1855993270874 59.9110107421875 L 13.18993759155273 59.91102600097656 L 13.20633697509766 59.91104125976563 C 14.94539928436279 59.91104125976563 17.1984920501709 59.23502731323242 19.55056762695313 58.00753402709961 L 19.55463027954102 58.00540924072266 L 19.55867576599121 58.00330352783203 C 23.06781387329102 56.18102645874023 26.98256874084473 53.03531646728516 30.0306453704834 49.58853149414063 L 30.03296852111816 49.58590316772461 L 30.03529167175293 49.58328628540039 C 31.3394603729248 48.1131477355957 32.44913864135742 46.62468719482422 33.15990829467773 45.3921012878418 L 33.16258239746094 45.38745498657227 L 33.16527557373047 45.3828239440918 C 33.34375 45.07501602172852 33.47418594360352 44.82135009765625 33.56748199462891 44.62458801269531 C 33.48603820800781 44.45270156860352 33.37995147705078 44.24506378173828 33.24530792236328 44.00728607177734 L 33.2414436340332 44.00047302246094 L 33.23759841918945 43.99362564086914 C 32.49901580810547 42.67868804931641 31.25198364257813 41.01214981079102 29.81627655029297 39.42134857177734 C 27.27383041381836 36.59867095947266 24.24516868591309 34.04568862915039 21.28527641296387 32.22939300537109 C 19.71733665466309 31.2651481628418 18.21029090881348 30.52968788146973 16.80224418640137 30.0411491394043 L 16.79952239990234 30.04019546508789 L 16.79678344726563 30.03924179077148 C 15.46270656585693 29.57444190979004 14.24761390686035 29.33876419067383 13.18527603149414 29.33876419067383 C 12.51113700866699 29.33945655822754 11.90692234039307 29.46496391296387 11.33709144592285 29.72245597839355 C 10.53502941131592 30.08496475219727 9.842106819152832 30.70113372802734 9.333552360534668 31.50420951843262 C 8.843660354614258 32.27687072753906 8.564075469970703 33.19690322875977 8.565121650695801 34.03062438964844 C 8.565169334411621 34.21073150634766 8.568471908569336 34.38888168334961 8.575011253356934 34.56476974487305 C 10.96521472930908 33.567626953125 13.47801494598389 33.04791641235352 15.98376846313477 33.04391860961914 L 15.98886013031006 33.04391860961914 L 15.99396800994873 33.04391860961914 C 17.48024559020996 33.04491806030273 18.91249084472656 33.23630142211914 20.25095367431641 33.61274719238281 C 22.6507682800293 34.28805541992188 24.71426010131836 35.56262588500977 26.21892166137695 37.29879379272461 C 27.09069061279297 38.30348587036133 27.76421356201172 39.44994735717773 28.2189826965332 40.70428848266602 C 28.66634178161621 41.93472671508789 28.89419174194336 43.25341796875 28.89485931396484 44.61994934082031 L 28.89486122131348 44.61994934082031 C 28.89727210998535 46.4405632019043 28.47851943969727 48.22393035888672 27.68386268615723 49.77770614624023 C 27.09552574157715 50.93291091918945 26.3060131072998 51.97021102905273 25.33710670471191 52.8610725402832 C 24.06952285766602 54.02597808837891 22.53861427307129 54.9057502746582 20.78610610961914 55.47670364379883 L 20.78279876708984 55.47777938842773 L 20.77947616577148 55.47885513305664 C 19.2927074432373 55.96067047119141 17.68252182006836 56.20548629760742 15.99362945556641 56.20650100708008 C 13.61638355255127 56.20554733276367 11.2278299331665 55.7359504699707 8.889829635620117 54.81070327758789 C 8.784564018249512 54.76896286010742 8.679621696472168 54.72635269165039 8.575139999389648 54.68292617797852 Z M 34.02627563476563 8.565056800842285 C 33.19375228881836 8.565056800842285 32.27529144287109 8.844640731811523 31.50639915466309 9.332148551940918 C 30.7009220123291 9.842164039611816 30.08478355407715 10.53484058380127 29.72232246398926 11.33674907684326 C 29.46525955200195 11.90591812133789 29.33987617492676 12.50985622406006 29.33953666687012 13.18191814422607 C 29.33859825134277 14.24564075469971 29.57402992248535 15.46134853363037 30.039306640625 16.79696464538574 C 30.52982902526855 18.20910263061523 31.26573753356934 19.717041015625 32.22789001464844 21.28267097473145 C 34.04599761962891 24.24459457397461 36.5992431640625 27.27356338500977 39.41855239868164 29.81365585327148 C 41.01352310180664 31.25251770019531 42.68035125732422 32.49979400634766 43.99379730224609 33.23760986328125 L 43.99842834472656 33.24022674560547 L 44.00305938720703 33.24283981323242 C 44.24341583251953 33.37860488891602 44.45253753662109 33.48532867431641 44.62524795532227 33.56710815429688 C 44.82157897949219 33.47410202026367 45.07559204101563 33.34357452392578 45.38536834716797 33.16415023803711 L 45.3887825012207 33.16217803955078 L 45.3922004699707 33.16020965576172 C 46.62441253662109 32.44937896728516 48.11336898803711 31.33936500549316 49.58475112915039 30.03462600708008 L 49.58687591552734 30.03274917602539 L 49.58898162841797 30.0308723449707 C 53.03570556640625 26.98224067687988 56.18124389648438 23.06737899780273 58.00329208374023 19.55864143371582 L 58.00541305541992 19.5545482635498 L 58.00755310058594 19.55047225952148 C 59.23979949951172 17.1893482208252 59.91581344604492 14.9309024810791 59.91106033325195 13.19116401672363 L 59.91104507446289 13.18502521514893 L 59.91104507446289 13.17888736724854 C 59.91104507446289 12.50851821899414 59.78607559204102 11.90645599365234 59.52901458740234 11.33830261230469 C 59.28816986083984 10.80471801757813 58.93865966796875 10.32351779937744 58.48852157592773 9.904363632202148 L 58.48539733886719 9.901456832885742 L 58.48227691650391 9.898532867431641 C 57.60181427001953 9.075564384460449 56.35670471191406 8.564332962036133 55.23281478881836 8.564332962036133 L 55.22475433349609 8.564332962036133 C 55.04135513305664 8.564586639404297 54.86068725585938 8.568014144897461 54.68281173706055 8.574625015258789 C 54.72598266601563 8.678550720214844 54.76837158203125 8.782987594604492 54.80986022949219 8.88767147064209 C 55.73587417602539 11.22710227966309 56.20555114746094 13.61568737030029 56.20658493041992 15.98891830444336 C 56.20658493041992 17.68108749389648 55.96152114868164 19.29294776916504 55.47818374633789 20.78167152404785 C 54.90561294555664 22.53897857666016 54.02573776245117 24.06993293762207 52.86153793334961 25.33651733398438 C 51.97185516357422 26.30438804626465 50.93581771850586 27.09335899353027 49.78203582763672 27.68174934387207 C 48.23263931274414 28.47537612915039 46.45319747924805 28.89477920532227 44.63555145263672 28.89477920532227 L 44.62599945068359 28.89477920532227 L 44.62027740478516 28.89477920532227 C 43.25357818603516 28.89413833618164 41.93477249145508 28.66628646850586 40.70049285888672 28.21753311157227 C 39.45250701904297 27.76508712768555 38.30689239501953 27.0923023223877 37.29927444458008 26.2192554473877 C 35.56281280517578 24.71436500549316 34.28826141357422 22.65096473693848 33.61298370361328 20.25176429748535 C 33.23635101318359 18.91156387329102 33.04507446289063 17.47967147827148 33.04398345947266 15.99416446685791 L 33.04398345947266 15.9882869720459 L 33.04399871826172 15.98242568969727 C 33.04870223999023 13.47638130187988 33.56867599487305 10.96351337432861 34.56490707397461 8.574840545654297 C 34.39031219482422 8.568371772766113 34.21369552612305 8.565108299255371 34.03501510620117 8.565056800842285 L 34.02627563476563 8.565056800842285 Z" stroke="none"/><path d="M 34.05934524536133 89.251220703125 C 38.32500839233398 89.251220703125 41.88842391967773 88.06417846679688 44.63303756713867 86.18960571289063 C 45.49686050415039 86.77750396728516 46.43013763427734 87.30726623535156 47.45355987548828 87.74490356445313 C 49.68376541137695 88.70016479492188 52.28183364868164 89.25120544433594 55.20890808105469 89.25120544433594 C 55.21105194091797 89.25120544433594 55.21281433105469 89.25120544433594 55.21495819091797 89.25120544433594 C 57.73535919189453 89.24986267089844 60.20481872558594 88.49730682373047 62.32814025878906 87.15418243408203 C 64.45079803466797 85.81090545654297 66.23719787597656 83.86344909667969 67.33291625976563 81.44370269775391 C 68.06269836425781 79.83246612548828 68.47756195068359 78.01406860351563 68.47683715820313 76.07224273681641 C 68.47537994384766 73.91132354736328 68.03424072265625 71.7490234375 67.30027770996094 69.63912200927734 C 66.80313873291016 68.21296691894531 66.16987609863281 66.80880737304688 65.43789672851563 65.43796539306641 C 66.80879974365234 66.16908264160156 68.21298217773438 66.80308532714844 69.63919830322266 67.29956817626953 C 71.749755859375 68.03352355957031 73.91133880615234 68.47536468505859 76.07225799560547 68.47606658935547 C 76.07403564453125 68.47606658935547 76.07581329345703 68.47606658935547 76.07759094238281 68.47606658935547 C 78.01738739013672 68.47606658935547 79.83387756347656 68.06193542480469 81.44371795654297 67.33284759521484 C 83.86345672607422 66.2371826171875 85.81167602539063 64.45000457763672 87.15489959716797 62.32810592651367 C 88.49732208251953 60.20474624633789 89.24980163574219 57.73536682128906 89.25192260742188 55.2142448425293 C 89.25192260742188 52.28518676757813 88.70088195800781 49.68532562255859 87.74489593505859 47.45348739624023 C 87.30728149414063 46.43008422851563 86.77751922607422 45.49680709838867 86.18963623046875 44.6330451965332 C 88.06758117675781 41.88348388671875 89.25543975830078 38.31196594238281 89.251220703125 34.03624725341797 C 89.24558258056641 30.67610549926758 87.91793823242188 27.40532493591309 85.61377716064453 24.92594528198242 C 84.46065521240234 23.68698501586914 83.05574035644531 22.64736557006836 81.44301605224609 21.91828536987305 C 79.83515167236328 21.19045066833496 78.01934051513672 20.7750415802002 76.08203887939453 20.7750415802002 C 76.07872009277344 20.7750415802002 76.07557678222656 20.77504348754883 76.07225799560547 20.77504539489746 C 72.55683898925781 20.78076553344727 69.052001953125 21.93034553527832 65.74217987060547 23.6494255065918 C 65.64012145996094 23.70264625549316 65.53939819335938 23.76008605957031 65.43789672851563 23.81400489807129 C 66.16987609863281 22.44304466247559 66.80313873291016 21.03886604309082 67.30027770996094 19.61200523376465 C 68.03424072265625 17.50216484069824 68.47537994384766 15.34052562713623 68.47683715820313 13.1788854598999 C 68.47756195068359 11.2378454208374 68.06269836425781 9.418745994567871 67.33291625976563 7.807485580444336 C 66.23719787597656 5.388445377349854 64.45079803466797 3.440285682678223 62.32814025878906 2.09708571434021 C 60.20481872558594 0.7545256018638611 57.73535919189453 0.001405610353685915 55.21495819091797 5.610351763607468e-06 C 55.21316909790039 5.183105258765863e-06 55.2111701965332 4.985351552022621e-06 55.20938491821289 4.985351552022621e-06 C 52.28187561035156 4.985351552022621e-06 49.68403625488281 0.550929069519043 47.45355987548828 1.506305575370789 C 46.43013763427734 1.943865656852722 45.49686050415039 2.474385499954224 44.63303756713867 3.061525583267212 C 41.88926315307617 1.188221216201782 38.32647705078125 0.0006306885043159127 34.06254577636719 0.0006306885043159127 C 34.05368041992188 0.0006306885043159127 34.04519271850586 0.0006354834185913205 34.03631973266602 0.0006456103292293847 C 30.67609977722168 0.005645610392093658 27.40603828430176 1.333965659141541 24.9260196685791 3.637425661087036 C 23.68777847290039 4.791245460510254 22.64735984802246 6.195465564727783 21.91835975646973 7.808145523071289 C 21.18927955627441 9.419445991516113 20.77371978759766 11.2378454208374 20.77511978149414 13.17964553833008 C 20.78081893920898 16.69436645507813 21.93039894104004 20.19920539855957 23.64949798583984 23.50896644592285 C 23.70263862609863 23.61184501647949 23.76013946533203 23.71250534057617 23.81469917297363 23.81464576721191 C 23.71257972717285 23.76008605957031 23.61185836791992 23.70264625549316 23.50979804992676 23.6494255065918 C 20.19927978515625 21.93034553527832 16.69443893432617 20.78076553344727 13.17963886260986 20.77504539489746 C 13.17643928527832 20.77504348754883 13.17305755615234 20.7750415802002 13.1698579788208 20.7750415802002 C 11.23172473907471 20.7750415802002 9.416863441467285 21.19040679931641 7.808259010314941 21.91828536987305 C 6.195538997650146 22.64736557006836 4.791298866271973 23.68698501586914 3.63749885559082 24.92594528198242 C 1.333978891372681 27.40532493591309 0.00635890755802393 30.67610549926758 0.0006989074754528701 34.03624725341797 C -0.004221092443913221 38.31196594238281 1.184398889541626 41.88348388671875 3.061578989028931 44.6330451965332 C 2.474378824234009 45.49680709838867 1.944638848304749 46.43008422851563 1.506358861923218 47.45348739624023 C 0.5503389239311218 49.68532562255859 -0.0006410925416275859 52.28518676757813 -1.092529259949515e-06 55.2142448425293 C 0.00217890739440918 57.73536682128906 0.7545989155769348 60.20474624633789 2.097098827362061 62.32810592651367 C 3.440279006958008 64.45000457763672 5.388498783111572 66.2371826171875 7.808259010314941 67.33284759521484 C 9.41722583770752 68.0618896484375 11.23470020294189 68.47606658935547 13.17360591888428 68.47606658935547 C 13.17550182342529 68.47606658935547 13.17704296112061 68.47606658935547 13.17893886566162 68.47606658935547 C 15.34051895141602 68.47536468505859 17.50223922729492 68.03352355957031 19.61277961730957 67.29956817626953 C 21.03893852233887 66.80308532714844 22.4430980682373 66.16908264160156 23.81469917297363 65.43718719482422 C 23.76013946533203 65.53926849365234 23.70263862609863 65.63998413085938 23.64949798583984 65.74216461181641 C 21.93039894104004 69.05192565917969 20.78081893920898 72.5567626953125 20.77511978149414 76.07154846191406 C 20.77371978759766 78.01334381103516 21.18927955627441 79.83170318603516 21.91835975646973 81.44300842285156 C 22.64735984802246 83.05572509765625 23.68777847290039 84.46058654785156 24.9260196685791 85.61376190185547 C 27.40603828430176 87.91722869873047 30.67609977722168 89.24556732177734 34.03631973266602 89.25120544433594 C 34.04388809204102 89.25121307373047 34.05178070068359 89.251220703125 34.05934524536133 89.251220703125 M 44.64076232910156 64.85710906982422 C 44.63579940795898 64.85710906982422 44.63096237182617 64.85711669921875 44.62599945068359 64.85712432861328 C 44.62364959716797 64.85712432861328 44.62120056152344 64.85712432861328 44.61885070800781 64.85712432861328 C 43.78450393676758 64.85712432861328 42.97931289672852 64.9932861328125 42.23809814453125 65.26344299316406 C 41.49485778808594 65.53226470947266 40.81967926025391 65.93578338623047 40.24604034423828 66.4329833984375 C 39.09214019775391 67.43356323242188 38.35107803344727 68.77464294433594 37.94467926025391 70.21856689453125 C 37.67303848266602 71.18516540527344 37.54475784301758 72.20856475830078 37.54397964477539 73.26104736328125 C 37.54898071289063 75.91408538818359 38.34965896606445 78.77506256103516 39.98007965087891 81.37844848632813 C 40.41130065917969 82.06634521484375 40.90771865844727 82.7337646484375 41.46015930175781 83.37338256835938 C 41.05805969238281 83.600341796875 40.64241790771484 83.81734466552734 40.19779968261719 84.00814819335938 C 38.49359893798828 84.73722839355469 36.46101760864258 85.18536376953125 34.03631973266602 85.18614196777344 C 34.03289413452148 85.18614959716797 34.02941131591797 85.18614959716797 34.02598571777344 85.18614959716797 C 32.32855606079102 85.18616485595703 30.58808898925781 84.66505432128906 29.09677886962891 83.71952819824219 C 27.6003589630127 82.77272796630859 26.36577796936035 81.41390228271484 25.62175941467285 79.76790618896484 C 25.12527847290039 78.66864776611328 24.84023857116699 77.43962860107422 24.83953857421875 76.07154846191406 C 24.83811950683594 74.47162628173828 25.17213821411133 72.74692535400391 25.78979873657227 70.97384643554688 C 26.4053783416748 69.20226287841797 27.30397796630859 67.38606262207031 28.39399909973145 65.61304473876953 C 30.57191848754883 62.06426620483398 33.5207405090332 58.69420623779297 36.40644073486328 56.09430694580078 C 38.32690048217773 54.36174392700195 40.22686004638672 52.96816635131836 41.78989791870117 52.09022521972656 C 42.67993927001953 51.58732604980469 43.4628791809082 51.25760650634766 44.00897979736328 51.11436462402344 C 44.28913879394531 51.03846740722656 44.50045776367188 51.01436614990234 44.61245727539063 51.01360702514648 L 44.62599945068359 51.01360702514648 C 44.63097381591797 51.01347732543945 44.63620758056641 51.01340866088867 44.64163970947266 51.01340866088867 C 44.81355285644531 51.01340866088867 45.21313095092773 51.0792236328125 45.72671890258789 51.26894378662109 C 46.25851821899414 51.46186447143555 46.91600036621094 51.77388381958008 47.6407585144043 52.19304656982422 C 49.09391784667969 53.03130722045898 50.81723785400391 54.29508590698242 52.57035827636719 55.84958648681641 C 56.0830192565918 58.95660400390625 59.72467803955078 63.24296569824219 61.99694061279297 67.61940765380859 C 63.51885986328125 70.53560638427734 64.41813659667969 73.47376251220703 64.41104125976563 76.07224273681641 C 64.41104125976563 77.43962860107422 64.12593841552734 78.66940307617188 63.62887954711914 79.76860809326172 C 63.13303756713867 80.86636352539063 62.42037963867188 81.83452606201172 61.55511856079102 82.64084625244141 C 59.83207321166992 84.25075531005859 57.49685287475586 85.18687438964844 55.23540115356445 85.18687438964844 C 55.22847747802734 85.18687438964844 55.22188186645508 85.18685913085938 55.21495819091797 85.18684387207031 C 52.15549850463867 85.18260192871094 49.72861862182617 84.47264862060547 47.78757858276367 83.37274932861328 C 49.03435897827148 81.92950439453125 49.9810791015625 80.33380889892578 50.62643814086914 78.70548248291016 C 51.34563827514648 76.8892822265625 51.7057991027832 75.03044891357422 51.70660018920898 73.26104736328125 C 51.70660018920898 72.07670593261719 51.54553985595703 70.92922210693359 51.1981201171875 69.85902404785156 C 50.84985733032227 68.79092407226563 50.31369781494141 67.79316711425781 49.54845809936523 66.95984649658203 C 49.03857803344727 66.40598297119141 48.427978515625 65.92938232421875 47.73225784301758 65.57548522949219 C 46.81086349487305 65.10387420654297 45.74947357177734 64.85710906982422 44.64076232910156 64.85710906982422 M 44.62599945068359 68.92082214355469 C 45.0287971496582 68.92144775390625 45.35078048706055 68.98462677001953 45.62529754638672 69.08316802978516 C 45.89897918701172 69.18310546875 46.13018035888672 69.32144927978516 46.34719848632813 69.50722503662109 C 46.77487945556641 69.87530517578125 47.15639877319336 70.47390747070313 47.39469909667969 71.32062530517578 C 47.55279922485352 71.88096618652344 47.64294052124023 72.54050445556641 47.64217758178711 73.26104736328125 C 47.64715957641602 75.07942199707031 47.06137847900391 77.26230621337891 45.82877731323242 79.21608734130859 C 45.47847747802734 79.7728271484375 45.07347869873047 80.30758666992188 44.62175750732422 80.81886291503906 C 43.64162063598633 79.70762634277344 42.90337753295898 78.4686279296875 42.40335845947266 77.20842742919922 C 41.86367797851563 75.84952545166016 41.6083984375 74.47162628173828 41.60910034179688 73.26104736328125 C 41.6083984375 72.45110321044922 41.72255706787109 71.71710205078125 41.91899871826172 71.11496734619141 C 42.11544036865234 70.51006317138672 42.38921737670898 70.04268646240234 42.69411849975586 69.71156311035156 C 42.89907836914063 69.48954772949219 43.11750030517578 69.32356262207031 43.3649787902832 69.19662475585938 C 43.69553756713867 69.03000640869141 44.08771896362305 68.92356872558594 44.62599945068359 68.92082214355469 M 76.06666564941406 24.83876419067383 C 76.06861877441406 24.83876419067383 76.07030487060547 24.83876419067383 76.07225799560547 24.83876609802246 C 77.43963623046875 24.84016609191895 78.66865539550781 25.12526512145996 79.76795959472656 25.62168502807617 C 81.41391754150391 26.36562538146973 82.77275848388672 27.60034561157227 83.72017669677734 29.09672546386719 C 84.66699981689453 30.59096527099609 85.18827819824219 32.33484649658203 85.18609619140625 34.03624725341797 C 85.18545532226563 36.46100616455078 84.73725891113281 38.49282455444336 84.0081787109375 40.19774627685547 C 83.81735992431641 40.64242553710938 83.60105895996094 41.05728530883789 83.37339782714844 41.46008682250977 C 82.73442077636719 40.90764617919922 82.06707763671875 40.41122436523438 81.37915802001953 39.98002624511719 C 78.77500152587891 38.34958648681641 75.91417694091797 37.54814529418945 73.26103973388672 37.54390716552734 C 72.20858001708984 37.54462432861328 71.18524169921875 37.67302703857422 70.21863555908203 37.94466400146484 C 68.774658203125 38.35100555419922 67.43363952636719 39.09212493896484 66.43292236328125 40.24594497680664 C 65.93579864501953 40.81974411010742 65.53298187255859 41.49490737915039 65.26351928710938 42.23808670043945 C 64.99257659912109 42.98134613037109 64.85642242431641 43.78906631469727 64.857177734375 44.62590408325195 C 64.85572052001953 45.74004745483398 65.10177612304688 46.80596542358398 65.5755615234375 47.7321662902832 C 65.93016052246094 48.42790603637695 66.40599822998047 49.03856658935547 66.95986175537109 49.54844665527344 C 67.79318237304688 50.31362533569336 68.79100036621094 50.8498649597168 69.85903930664063 51.19804382324219 C 70.92990112304688 51.54482650756836 72.07669830322266 51.70578384399414 73.26103973388672 51.70650482177734 C 75.03045654296875 51.70578384399414 76.88929748535156 51.34548568725586 78.70552062988281 50.62642669677734 C 80.33390045166016 49.98108673095703 81.92954254150391 49.03428649902344 83.37269592285156 47.78750610351563 C 84.47265625 49.7279052734375 85.18255615234375 52.15542602539063 85.18685913085938 55.2142448425293 C 85.19249725341797 57.48288726806641 84.25641632080078 59.82678604125977 82.64080047607422 61.55512619018555 C 81.83454132080078 62.42030715942383 80.86651611328125 63.13302612304688 79.76861572265625 63.62872695922852 C 78.66941833496094 64.12592315673828 77.44033813476563 64.41030883789063 76.07225799560547 64.41100311279297 C 76.06321716308594 64.41102600097656 76.05388641357422 64.41104125976563 76.04483795166016 64.41104125976563 C 73.45310211181641 64.41104125976563 70.5255126953125 63.5135498046875 67.61941528320313 61.99692535400391 C 63.24297714233398 59.72466659545898 58.95734024047852 56.08294677734375 55.85035705566406 52.56956481933594 C 54.29507827758789 50.81722640991211 53.03131866455078 49.09384536743164 52.19305801391602 47.64004516601563 C 51.77396011352539 46.9159049987793 51.46194076538086 46.25844573974609 51.26895904541016 45.72658538818359 C 51.07329940795898 45.19612503051758 51.00943756103516 44.78830718994141 51.01371765136719 44.62590408325195 L 51.01371765136719 44.61244583129883 C 51.01443862915039 44.50038528442383 51.03855895996094 44.28908538818359 51.1143798828125 44.00890731811523 C 51.25831985473633 43.46288681030273 51.58739852905273 42.67918395996094 52.09021759033203 41.78988647460938 C 52.9688606262207 40.22684478759766 54.36183929443359 38.32684707641602 56.0943603515625 36.40638732910156 C 58.69427871704102 33.52066421508789 62.06427764892578 30.57116508483887 65.61305999755859 28.39392471313477 C 67.38613891601563 27.3032054901123 69.20233917236328 26.40468597412109 70.97463989257813 25.78978538513184 C 72.74539184570313 25.17281913757324 74.46772003173828 24.83876419067383 76.06666564941406 24.83876419067383 M 5.879219055175781 47.78750610351563 C 7.321718692779541 49.03428649902344 8.918098449707031 49.98108673095703 10.54569911956787 50.62642669677734 C 12.36267852783203 51.34548568725586 14.22075843811035 51.70578384399414 15.99093914031982 51.70650482177734 C 17.17525863647461 51.70578384399414 18.32207870483398 51.54482650756836 19.39217948913574 51.19804382324219 C 20.46091842651367 50.8498649597168 21.45873832702637 50.31362533569336 22.29135894775391 49.54844665527344 C 22.84591865539551 49.03856658935547 23.32181930541992 48.42790603637695 23.67563819885254 47.7321662902832 C 24.15013885498047 46.80596542358398 24.39633941650391 45.74004745483398 24.39485931396484 44.62590408325195 C 24.39485931396484 43.78906631469727 24.2586784362793 42.98134613037109 23.98845863342285 42.23808670043945 C 23.71899795532227 41.49490737915039 23.3161792755127 40.81974411010742 22.81827926635742 40.24594497680664 C 21.81833839416504 39.09212493896484 20.47655868530273 38.35100555419922 19.03257942199707 37.94466400146484 C 18.06673812866211 37.67302703857422 17.04331970214844 37.54462432861328 15.99093914031982 37.54390716552734 C 13.33709907531738 37.54814529418945 10.47689914703369 38.34958648681641 7.872758865356445 39.98002624511719 C 7.184898853302002 40.41122436523438 6.517498970031738 40.90764617919922 5.878499031066895 41.46008682250977 C 5.650838851928711 41.05728530883789 5.434538841247559 40.64242553710938 5.243798732757568 40.19774627685547 C 4.514739036560059 38.49282455444336 4.06575870513916 36.46100616455078 4.065118789672852 34.03624725341797 C 4.06299877166748 32.33484649658203 4.584299087524414 30.59096527099609 5.531718730926514 29.09672546386719 C 6.479299068450928 27.60034561157227 7.838018894195557 26.36562538146973 9.48405933380127 25.62168502807617 C 10.58261871337891 25.12526512145996 11.81233882904053 24.84016609191895 13.17963886260986 24.83876609802246 C 13.18149471282959 24.83876419067383 13.18337631225586 24.83876419067383 13.1852331161499 24.83876419067383 C 14.78434181213379 24.83876419067383 16.50645446777344 25.17278289794922 18.2773380279541 25.78978538513184 C 20.04957962036133 26.40468597412109 21.86519813537598 27.3032054901123 23.63885879516602 28.39392471313477 C 27.18689918518066 30.57116508483887 30.55769920349121 33.52066421508789 33.15695953369141 36.40638732910156 C 34.89015960693359 38.32684707641602 36.28310012817383 40.22684478759766 37.16103744506836 41.78988647460938 C 37.66463851928711 42.67918395996094 37.99359893798828 43.46288681030273 38.13757705688477 44.00890731811523 C 38.21341705322266 44.28908538818359 38.2375373840332 44.50038528442383 38.2375373840332 44.61244583129883 L 38.2375373840332 44.62590408325195 C 38.24184036254883 44.78830718994141 38.17868041992188 45.19612503051758 37.98295974731445 45.72658538818359 C 37.7893180847168 46.25844573974609 37.47808074951172 46.9159049987793 37.05819702148438 47.64004516601563 C 36.21987915039063 49.09384536743164 34.95611953735352 50.81722640991211 33.40161895751953 52.56956481933594 C 30.29463958740234 56.08294677734375 26.00821876525879 59.72466659545898 21.63253974914551 61.99692535400391 C 18.72664260864258 63.51345825195313 15.79869556427002 64.41104125976563 13.2063684463501 64.41104125976563 C 13.19715881347656 64.41104125976563 13.18813991546631 64.41102600097656 13.17893886566162 64.41100311279297 C 11.81163883209229 64.41030883789063 10.58261871337891 64.12592315673828 9.483359336853027 63.62872695922852 C 8.385519027709961 63.13302612304688 7.417438983917236 62.42030715942383 6.611178874969482 61.55512619018555 C 4.995638847351074 59.82678604125977 4.059399127960205 57.48288726806641 4.065118789672852 55.2142448425293 C 4.068638801574707 52.15542602539063 4.779318809509277 49.7279052734375 5.879219055175781 47.78750610351563 M 47.67269897460938 47.67268371582031 C 47.20677947998047 47.47758483886719 46.74647903442383 47.31096649169922 46.29045867919922 47.18826675415039 C 45.96635818481445 47.10170745849609 45.64157867431641 47.03792572021484 45.31243896484375 46.99674606323242 L 45.24087905883789 46.94924545288086 L 44.62527847290039 46.94924545288086 C 43.76855850219727 46.95276641845703 42.96505737304688 47.15062713623047 42.13602066040039 47.44854736328125 C 41.95235824584961 47.51516723632813 41.7672004699707 47.58966445922852 41.58075714111328 47.66768646240234 C 41.77507781982422 47.2038459777832 41.94099807739258 46.74498748779297 42.063720703125 46.29044723510742 C 42.14949798583984 45.96628570556641 42.2140007019043 45.64150619506836 42.25449752807617 45.31248474121094 L 42.30265808105469 45.24010467529297 L 42.30265808105469 44.62526702880859 C 42.29841995239258 43.76778411865234 42.10057830810547 42.96498489379883 41.80341720581055 42.13594436645508 C 41.73674011230469 41.95368576049805 41.66296005249023 41.77000427246094 41.58563995361328 41.58490371704102 C 41.77008056640625 41.66224670410156 41.95375823974609 41.73666381835938 42.13602066040039 41.8033447265625 C 42.96505737304688 42.10050582885742 43.76855850219727 42.29834747314453 44.62527847290039 42.30258560180664 L 45.24087905883789 42.30258560180664 L 45.31243896484375 42.25436401367188 C 45.64157867431641 42.21326446533203 45.96635818481445 42.1494255065918 46.29045867919922 42.06292724609375 C 46.74499893188477 41.94094467163086 47.20391845703125 41.77494430541992 47.66839981079102 41.58062744140625 C 47.59043884277344 41.76642608642578 47.51523971557617 41.95226669311523 47.44855880737305 42.13594436645508 C 47.15076065063477 42.96498489379883 46.95283889770508 43.76778411865234 46.94926071166992 44.62526702880859 L 46.94926071166992 45.24010467529297 L 46.9968376159668 45.31248474121094 C 47.03797912597656 45.64150619506836 47.10177993774414 45.96628570556641 47.18825912475586 46.29044723510742 C 47.31097793579102 46.74640655517578 47.47765731811523 47.2066650390625 47.67269897460938 47.67268371582031 M 73.25300598144531 41.60908126831055 C 73.25572204589844 41.60908126831055 73.25832366943359 41.60908126831055 73.26103973388672 41.60908508300781 C 73.26444244384766 41.60908126831055 73.2679443359375 41.60908126831055 73.27134704589844 41.60908126831055 C 74.48019409179688 41.60908126831055 75.85343170166016 41.86513900756836 77.20839691162109 42.40330505371094 C 78.46863555908203 42.90258407592773 79.70828247070313 43.64084625244141 80.81887817382813 44.62168502807617 C 80.30829620361328 45.0727653503418 79.77284240722656 45.47834396362305 79.21615600585938 45.82876586914063 C 77.27053070068359 47.05613327026367 75.09825134277344 47.64219665527344 73.28378295898438 47.64219665527344 C 73.27610778808594 47.64219665527344 73.26869964599609 47.64218521118164 73.26103973388672 47.64216613769531 C 72.54049682617188 47.64216613769531 71.88092041015625 47.55280685424805 71.32071685791016 47.39464569091797 C 70.47393798828125 47.15562438964844 69.87538146972656 46.77410507202148 69.50724029541016 46.34718704223633 C 69.32145690917969 46.13016510009766 69.18318176269531 45.89896392822266 69.08316040039063 45.62516403198242 C 68.984619140625 45.35070419311523 68.9222412109375 45.02872467041016 68.92145538330078 44.62590408325195 C 68.92363739013672 44.08770370483398 69.03002166748047 43.69546508789063 69.19670104980469 43.36496734619141 C 69.32363891601563 43.11750411987305 69.48955535888672 42.89836502075195 69.71157836914063 42.69410705566406 C 70.04270172119141 42.38912582397461 70.51007843017578 42.11538696289063 71.11511993408203 41.91892623901367 C 71.71579742431641 41.72316360473633 72.44639587402344 41.60908126831055 73.25300598144531 41.60908126831055 M 15.98063278198242 41.60908126831055 C 15.98410987854004 41.60908126831055 15.98746395111084 41.60908126831055 15.99093914031982 41.60908508300781 C 15.99360847473145 41.60908126831055 15.99630451202393 41.60908126831055 15.99897193908691 41.60908126831055 C 16.80563926696777 41.60908126831055 17.53608512878418 41.72315216064453 18.13693809509277 41.91892623901367 C 18.74189949035645 42.11538696289063 19.20849800109863 42.38912582397461 19.5403995513916 42.69410705566406 C 19.76171875 42.89836502075195 19.92839813232422 43.11750411987305 20.05527877807617 43.36496734619141 C 20.22189903259277 43.69546508789063 20.32833862304688 44.08770370483398 20.33051872253418 44.62590408325195 C 20.32973861694336 45.02872467041016 20.26735877990723 45.35070419311523 20.16805839538574 45.62516403198242 C 20.0680980682373 45.89896392822266 19.93045806884766 46.13016510009766 19.74465942382813 46.34718704223633 C 19.37653923034668 46.77410507202148 18.77803802490234 47.15562438964844 17.93119812011719 47.39464569091797 C 17.37099838256836 47.55280685424805 16.71077919006348 47.64216613769531 15.99093914031982 47.64216613769531 C 15.98338890075684 47.64218521118164 15.97575950622559 47.64219665527344 15.96819686889648 47.64219665527344 C 14.15365600585938 47.64219665527344 11.98156642913818 47.05620956420898 10.03509902954102 45.82876586914063 C 9.47913932800293 45.47834396362305 8.943678855895996 45.0727653503418 8.433038711547852 44.62168502807617 C 9.543639183044434 43.64084625244141 10.78257846832275 42.90258407592773 12.04281902313232 42.40330505371094 C 13.39839935302734 41.86517333984375 14.7718391418457 41.60908126831055 15.98063278198242 41.60908126831055 M 34.02637100219727 4.06503963470459 C 34.02969360351563 4.06503963470459 34.03299713134766 4.065041542053223 34.03631973266602 4.065045833587646 C 36.46101760864258 4.065765380859375 38.49359893798828 4.514725685119629 40.19779968261719 5.243745803833008 C 40.64241790771484 5.433825492858887 41.05805969238281 5.650845527648926 41.46015930175781 5.878445625305176 C 40.90771865844727 6.517505645751953 40.41130065917969 7.184845447540283 39.98007965087891 7.872685432434082 C 38.34965896606445 10.47690582275391 37.54898071289063 13.33698558807373 37.54397964477539 15.99086570739746 C 37.54475784301758 17.04332542419434 37.67303848266602 18.06596565246582 37.94467926025391 19.03256607055664 C 38.35107803344727 20.47648620605469 39.09214019775391 21.81826591491699 40.24604034423828 22.81828498840332 C 40.81967926025391 23.31534576416016 41.49485778808594 23.71892547607422 42.23809814453125 23.9883861541748 C 42.98139953613281 24.25862503051758 43.78913879394531 24.39478492736816 44.62599945068359 24.39478492736816 C 44.62919616699219 24.39478874206543 44.63239288330078 24.3947925567627 44.63558578491211 24.3947925567627 C 45.74621963500977 24.3947925567627 46.80939483642578 24.14878463745117 47.73225784301758 23.67570495605469 C 48.427978515625 23.32174491882324 49.03857803344727 22.84598541259766 49.54845809936523 22.29128646850586 C 50.31369781494141 21.4587459564209 50.84985733032227 20.46090507507324 51.1981201171875 19.39210510253906 C 51.54553985595703 18.32196617126465 51.70660018920898 17.17520523071289 51.70660018920898 15.99086570739746 C 51.7057991027832 14.2206859588623 51.34563827514648 12.36260604858398 50.62643814086914 10.54568576812744 C 49.9810791015625 8.917325973510742 49.03435897827148 7.32166576385498 47.78757858276367 5.878445625305176 C 49.72861862182617 4.778545379638672 52.15549850463867 4.068585395812988 55.21495819091797 4.064345836639404 C 55.22091293334961 4.064332485198975 55.22687149047852 4.064326286315918 55.23282241821289 4.064326286315918 C 57.49518585205078 4.064326286315918 59.83133316040039 4.999805450439453 61.55511856079102 6.611045837402344 C 62.42037963867188 7.416725635528564 63.13303756713867 8.384745597839355 63.62887954711914 9.483305931091309 C 64.12593841552734 10.5818452835083 64.41104125976563 11.81156539916992 64.41104125976563 13.1788854598999 C 64.41813659667969 15.77808570861816 63.51885986328125 18.71630477905273 61.99694061279297 21.63248634338379 C 59.72467803955078 26.00820541381836 56.0830192565918 30.29458618164063 52.57035827636719 33.40154647827148 C 50.81723785400391 34.95612716674805 49.09391784667969 36.21988677978516 47.6407585144043 37.05814743041992 C 46.91600036621094 37.47794723510742 46.25851821899414 37.78932571411133 45.72671890258789 37.98224639892578 C 45.21310043334961 38.17192077636719 44.8134651184082 38.23773956298828 44.64157104492188 38.23773956298828 C 44.63614654541016 38.23773956298828 44.63096237182617 38.23767471313477 44.62599945068359 38.23754501342773 L 44.61245727539063 38.23754501342773 C 44.50045776367188 38.23682403564453 44.28913879394531 38.2133674621582 44.00897979736328 38.13680648803711 C 43.4628791809082 37.99358749389648 42.67993927001953 37.66372680664063 41.78989791870117 37.16096496582031 C 40.22686004638672 36.28296661376953 38.32690048217773 34.88938522338867 36.40644073486328 33.15688705444336 C 33.5207405090332 30.55698585510254 30.57191848754883 27.18690490722656 28.39399909973145 23.63878631591797 C 27.30397796630859 21.86508560180664 26.4053783416748 20.0495662689209 25.78979873657227 18.27732467651367 C 25.17213821411133 16.50432586669922 24.83811950683594 14.78018569946289 24.83953857421875 13.17964553833008 C 24.84023857116699 11.81228542327881 25.12527847290039 10.58254528045654 25.62175941467285 9.483305931091309 C 26.36577796936035 7.837245464324951 27.6003589630127 6.479165554046631 29.09677886962891 5.531665802001953 C 30.58818054199219 4.586076259613037 32.32884216308594 4.06503963470459 34.02637100219727 4.06503963470459 M 44.62175750732422 8.432265281677246 C 45.07347869873047 8.943545341491699 45.47847747802734 9.479005813598633 45.82877731323242 10.0350456237793 C 47.06137847900391 11.98890590667725 47.64715957641602 14.17176532745361 47.64217758178711 15.99086570739746 C 47.64294052124023 16.71064567565918 47.55279922485352 17.37092590332031 47.39469909667969 17.93120574951172 C 47.15639877319336 18.77728652954102 46.77487945556641 19.37652587890625 46.34719848632813 19.7438850402832 C 46.13018035888672 19.92968559265137 45.89897918701172 20.06804466247559 45.62529754638672 20.16804504394531 C 45.35078048706055 20.26728630065918 45.0287971496582 20.32966613769531 44.62599945068359 20.33038520812988 C 44.08771896362305 20.32826614379883 43.69553756713867 20.22120475769043 43.3649787902832 20.0545654296875 C 43.11750030517578 19.92756652832031 42.89907836914063 19.76164627075195 42.69411849975586 19.54032516479492 C 42.38921737670898 19.20842552185059 42.11544036865234 18.74112510681152 41.91899871826172 18.13616561889648 C 41.72255706787109 17.53402519226074 41.6083984375 16.80078506469727 41.60910034179688 15.99086570739746 C 41.6083984375 14.77954578399658 41.86367797851563 13.40230560302734 42.40335845947266 12.04276561737061 C 42.90337753295898 10.78258514404297 43.64162063598633 9.543625831604004 44.62175750732422 8.432265281677246 M 34.0593376159668 98.25122833251953 L 34.02121734619141 98.25118255615234 C 28.39183807373047 98.24174499511719 22.9865779876709 96.09560394287109 18.80111885070801 92.20812225341797 C 16.62837982177734 90.18464660644531 14.9208984375 87.812744140625 13.71731853485107 85.150146484375 C 12.61342525482178 82.71051025390625 11.97534465789795 80.12062835693359 11.81526756286621 77.43540954589844 C 9.123553276062012 77.27437591552734 6.532608509063721 76.63563537597656 4.09377908706665 75.53056335449219 C 0.159418910741806 73.74910736083984 -3.1613609790802 70.84798431396484 -5.507380962371826 67.14180755615234 C -7.789541244506836 63.53224563598633 -8.996380805969238 59.411865234375 -9.000000953674316 55.22202682495117 C -9.000821113586426 51.44969177246094 -8.347860336303711 47.88813781738281 -7.057945728302002 44.61809539794922 C -8.341045379638672 41.35450744628906 -9.003603935241699 37.7714729309082 -8.999300956726074 34.02588653564453 C -8.989801406860352 28.39008522033691 -6.843581199645996 22.98450469970703 -2.956001043319702 18.80012512207031 C -0.9337810873985291 16.6286449432373 1.438038945198059 14.92116546630859 4.100799083709717 13.71738529205322 C 6.540466785430908 12.61345291137695 9.130288124084473 11.97533702850342 11.81562042236328 11.81522464752197 C 11.97627735137939 9.12690544128418 12.61441421508789 6.538460254669189 13.71869850158691 4.097965717315674 C 14.92005920410156 1.440305590629578 16.62691879272461 -0.9309743642807007 18.79047966003418 -2.947034358978271 C 22.98727798461914 -6.84507417678833 28.39315795898438 -8.990974426269531 34.02291870117188 -8.999354362487793 C 37.78069305419922 -8.999367713928223 41.36066818237305 -8.336700439453125 44.61701202392578 -7.057675838470459 C 47.88202285766602 -8.346238136291504 51.44293975830078 -8.999994277954102 55.20937728881836 -8.999994277954102 C 59.40744018554688 -8.997673988342285 63.53054046630859 -7.790794372558594 67.13796234130859 -5.509854316711426 C 70.8465576171875 -3.163094282150269 73.74794006347656 0.1573056131601334 75.53112030029297 4.09406566619873 C 76.63719177246094 6.536125183105469 77.27610778808594 9.1278076171875 77.43653869628906 11.81623077392578 C 80.13038635253906 11.97804164886475 82.71778869628906 12.61617088317871 85.154541015625 13.71922588348389 C 87.81529998779297 14.92210578918457 90.18772125244141 16.63022613525391 92.20188140869141 18.7943058013916 C 96.09501647949219 22.98348617553711 98.24176025390625 28.38940620422363 98.25119781494141 34.02114486694336 C 98.25490570068359 37.77103424072266 97.59226989746094 41.35488891601563 96.30936431884766 44.6181755065918 C 97.59815979003906 47.8842658996582 98.25192260742188 51.44622802734375 98.25192260742188 55.2142448425293 C 98.24839782714844 59.41150665283203 97.04164123535156 63.53188705444336 94.76211547851563 67.13750457763672 C 92.41326141357422 70.8480224609375 89.09249877929688 73.74910736083984 85.15608215332031 75.53152465820313 C 82.71595764160156 76.63666534423828 80.12496948242188 77.27526092529297 77.43639373779297 77.43571472167969 C 77.27567291259766 80.12488555908203 76.63679504394531 82.71596527099609 75.53119659423828 85.15696716308594 C 73.74885559082031 89.09300231933594 70.84741973876953 92.41368865966797 67.14086151123047 94.75928497314453 C 63.5324592590332 97.04182434082031 59.41071701049805 98.24898529052734 55.2197380065918 98.25120544433594 C 51.44761276245117 98.25120544433594 47.8865966796875 97.59825897216797 44.61846160888672 96.30930328369141 C 41.36492538452148 97.58853912353516 37.79324722290039 98.25122833251953 34.0593376159668 98.25122833251953 Z" stroke="none" fill="#000"/></g></svg>
